<svg width="20" height="18" viewBox="0 0 20 18" fill="none" xmlns="http://www.w3.org/2000/svg">
<path d="M7.86719 14.5059C8.69175 14.4326 9.4202 15.0415 9.49414 15.8662C9.56794 16.6907 8.95927 17.4195 8.13477 17.4941C7.30942 17.5685 6.57981 16.9592 6.50586 16.1338C6.43195 15.3082 7.04174 14.5792 7.86719 14.5059ZM15.874 14.5059C16.6477 14.4407 17.3334 14.9746 17.4736 15.7217L17.4941 15.874C17.5637 16.699 16.952 17.424 16.127 17.4941C15.3015 17.5643 14.576 16.9523 14.5059 16.127C14.436 15.3013 15.0483 14.5755 15.874 14.5059ZM0.639648 0.501953C1.29927 0.486482 1.94991 0.648402 2.51953 0.970703L2.52246 0.97168C3.11688 1.30362 3.59858 1.7954 3.91016 2.38574V2.38672C3.98801 2.53361 4.0401 2.64065 4.06836 2.74121L4.18359 3.15039L4.60547 3.10254C4.63201 3.09953 4.64579 3.09885 4.6875 3.09863H17.6543C17.9246 3.09867 18.1068 3.09361 18.3018 3.125C18.5524 3.16543 18.8944 3.34717 19.0811 3.53418H19.082C19.3678 3.83385 19.5058 4.15672 19.5 4.5293C19.4968 4.73193 19.4586 4.92159 19.4014 5.12695L19.1875 5.82031L18.2402 8.9834C18.0674 9.56106 17.9385 10.0336 17.6719 10.459C17.6189 10.5436 17.5568 10.6429 17.4922 10.7373C17.4234 10.8378 17.3714 10.9037 17.3418 10.9326L17.3242 10.9502C17.2882 10.9891 17.2548 11.0322 17.2383 11.0527C17.2164 11.08 17.2074 11.0893 17.2031 11.0938C17.08 11.2202 16.9617 11.3408 16.8496 11.4395C16.228 11.975 15.4611 12.3276 14.6387 12.4531H14.6367C14.2292 12.5164 13.7378 12.4972 13.2344 12.4971H9.89355C9.57026 12.4954 9.3366 12.4829 8.98535 12.4082C7.64701 12.1235 6.53378 11.2648 5.98242 10.0625C5.85449 9.78339 5.73942 9.37491 5.63281 9.01465L5.63184 9.0127L4.08887 3.86719C3.90925 3.26065 3.6842 2.4725 3.13281 1.87402C2.61321 1.30693 1.90554 0.940883 1.1377 0.839844H1.13379C1.04982 0.829459 0.963333 0.825004 0.895508 0.821289C0.821623 0.817243 0.76351 0.813621 0.708984 0.807617C0.620616 0.797871 0.586237 0.784708 0.578125 0.78125C0.500888 0.722115 0.49293 0.65583 0.504883 0.609375C0.51153 0.583857 0.524978 0.56082 0.544922 0.542969C0.561739 0.527977 0.590733 0.511432 0.639648 0.501953Z" stroke="#717680"/>
</svg>
