<svg width="20" height="18" viewBox="0 0 20 18" fill="none" xmlns="http://www.w3.org/2000/svg">
<path d="M16.8955 3.39551H17.6543C17.9366 3.39555 18.0885 3.39138 18.2539 3.41797C18.4384 3.44766 18.7246 3.59704 18.8701 3.74219C19.1081 3.993 19.2074 4.24217 19.2031 4.52441V4.52539C19.1975 4.87614 19.0742 5.16748 18.9033 5.73438V5.73535L18.3848 7.46582L17.9551 8.89844C17.8001 9.4166 17.691 9.8084 17.5049 10.1553L17.4199 10.3018C17.366 10.3877 17.3075 10.481 17.2471 10.5693C17.2173 10.6128 17.1907 10.6496 17.168 10.6787C17.1452 10.7079 17.1339 10.7196 17.1338 10.7197L17.1201 10.7334L17.1064 10.748C17.0817 10.7748 17.0605 10.8004 17.0449 10.8193C17.0302 10.8372 17.015 10.8561 17.0068 10.8662C16.9992 10.8757 16.9943 10.882 16.9912 10.8857V10.8867C16.8668 11.0144 16.756 11.1252 16.6543 11.2148C16.0755 11.7131 15.3613 12.042 14.5938 12.1592L14.5918 12.1602C14.2139 12.2189 13.7579 12.2003 13.2344 12.2002H9.89551C9.58057 12.1986 9.37123 12.1871 9.04688 12.1182C7.79442 11.8516 6.76266 11.0508 6.25293 9.93945C6.1361 9.68472 6.02703 9.30251 5.91699 8.93066V8.92773L5.56836 7.76562L4.59961 4.53613L4.37305 3.78223C4.34135 3.67519 4.30618 3.55999 4.26855 3.43848L4.63965 3.39746C4.64974 3.39632 4.65341 3.39657 4.65527 3.39648C4.65906 3.3963 4.66661 3.39563 4.68848 3.39551L14.1826 3.39648L16.8955 3.39551Z" stroke="#717680" stroke-width="1.59375"/>
<path d="M7.875 14.5918C8.6523 14.5228 9.3385 15.0966 9.4082 15.874C9.47771 16.6512 8.90418 17.3379 8.12695 17.4082C7.34892 17.4783 6.66151 16.904 6.5918 16.126C6.52654 15.3964 7.02738 14.7466 7.73145 14.6113L7.875 14.5918Z" stroke="#717680" stroke-width="1.17188"/>
<path d="M15.8809 14.5908C16.6588 14.5253 17.3433 15.1029 17.4092 15.8809C17.4749 16.6586 16.8978 17.3429 16.1201 17.4092C15.3418 17.4754 14.6567 16.8974 14.5908 16.1191C14.525 15.3409 15.1027 14.6566 15.8809 14.5908Z" stroke="#717680" stroke-width="1.17188"/>
</svg>
