<svg width="20" height="18" viewBox="0 0 20 18" fill="none" xmlns="http://www.w3.org/2000/svg">
<path d="M0.5878 0.00233768C1.35086 -0.0235468 2.10579 0.165964 2.76616 0.549161C3.44379 0.937158 3.99456 1.51309 4.3519 2.20738C4.429 2.35654 4.50516 2.50994 4.54958 2.67199C4.60071 2.66605 4.6336 2.66502 4.68536 2.66475L17.6541 2.66473C17.904 2.66478 18.1362 2.65779 18.3809 2.69818C18.746 2.75843 19.188 3.00324 19.4434 3.27008C19.806 3.65989 20.008 4.11637 19.9998 4.65244C19.9919 5.16164 19.8094 5.62882 19.6664 6.11536L18.7189 9.35826C18.5533 9.92572 18.4062 10.4882 18.0954 10.9965C17.9925 11.1648 17.8254 11.4415 17.6911 11.576C17.6484 11.6233 17.6077 11.6839 17.5617 11.7323C17.4412 11.8591 17.3095 11.9977 17.1803 12.1143C16.486 12.7291 15.6301 13.132 14.7139 13.2754C14.2561 13.3484 13.704 13.3264 13.2339 13.3263L10.2537 13.3265C9.72213 13.3266 9.40973 13.3394 8.88146 13.2243C7.39871 12.9009 6.14995 11.9214 5.52842 10.5317C5.38157 10.2034 5.25426 9.73862 5.15326 9.38867L3.61005 4.11294C3.4237 3.46783 3.22576 2.78093 2.76594 2.26919C2.32677 1.77695 1.72606 1.45794 1.07231 1.36976C0.815658 1.33721 0.480888 1.37076 0.27391 1.20828C-0.204286 0.83288 -0.0291083 0.0899452 0.5878 0.00233768Z" fill="#181D27"/>
<path d="M7.82796 13.9924C8.93127 13.8944 9.90522 14.7089 10.0041 15.8122C10.1029 16.9154 9.28929 17.89 8.18615 17.9899C7.0817 18.0898 6.10558 17.2749 6.00661 16.1704C5.90765 15.0658 6.72334 14.0904 7.82796 13.9924Z" fill="#181D27"/>
<path d="M15.8338 13.9917C16.9378 13.8987 17.9083 14.718 18.0018 15.8221C18.0952 16.9261 17.2763 17.8969 16.1723 17.9908C15.0676 18.0848 14.0962 17.2652 14.0027 16.1606C13.9092 15.0559 14.729 14.0847 15.8338 13.9917Z" fill="#181D27"/>
</svg>
