<svg width="24" height="24" viewBox="0 0 24 24" fill="none" xmlns="http://www.w3.org/2000/svg">
<path d="M15.8157 12.67L19.0334 12.6677C19.346 12.6675 19.6392 12.6547 19.9476 12.7277C20.4244 12.841 20.8615 13.082 21.2116 13.4251C21.7073 13.9086 21.99 14.5696 21.9972 15.2619L21.9975 18.9546C21.9976 19.3039 22.0155 19.5924 21.9368 19.9373C21.8355 20.3811 21.5578 20.9013 21.2329 21.2246C20.7877 21.6588 20.2077 21.9278 19.5886 21.9868C19.3876 22.005 19.0676 21.9954 18.8583 21.9952L15.644 21.9955C15.3236 21.9956 15.043 22.0069 14.7258 21.932C14.2452 21.8159 13.8047 21.5727 13.4502 21.228C12.9864 20.7756 12.6694 20.0829 12.6695 19.4331C12.6696 18.4949 12.6701 17.5567 12.6699 16.6186V15.7096C12.67 15.3608 12.6512 15.0517 12.7323 14.7087C12.8484 14.2314 13.092 13.7945 13.4372 13.4449C13.8413 13.0376 14.4332 12.7363 15.0049 12.6817C15.2282 12.6603 15.58 12.6698 15.8157 12.67ZM19.3855 20.6536C19.7712 20.6177 20.0926 20.48 20.3463 20.1763C20.4916 20.0035 20.5881 19.795 20.6256 19.5724C20.6793 19.2642 20.666 18.8938 20.6661 18.5761L20.6663 16.0647C20.666 15.4005 20.7392 14.7645 20.1612 14.2971C19.9842 14.1563 19.7744 14.0626 19.5514 14.0248C19.355 13.9918 19.0599 13.9976 18.855 13.9977L17.9909 13.9979C17.1073 13.9982 16.1737 13.9815 15.2947 14.0028C14.8702 14.0522 14.5702 14.1671 14.2928 14.5176C14.1524 14.6945 14.0612 14.9055 14.0283 15.1289C13.9905 15.3705 13.9997 15.7474 13.9997 16.0016L13.9999 18.6146C14.0003 19.287 13.9286 19.9154 14.5279 20.3785C14.6991 20.5107 14.9004 20.5982 15.1137 20.6334C15.3537 20.6725 15.7098 20.665 15.9575 20.6649L17.0824 20.664L18.5191 20.6644C18.7878 20.6644 19.1229 20.6729 19.3855 20.6536Z" fill="#717680"/>
<path d="M4.35886 12.6794C4.44184 12.6662 4.75092 12.6724 4.84935 12.6727L5.8213 12.6734L7.92009 12.6726C8.30746 12.6725 8.80523 12.6445 9.17661 12.7077C10.2293 12.8869 11.1214 13.7865 11.2976 14.8383C11.3555 15.1835 11.3345 15.5882 11.3343 15.9384L11.3343 18.8103C11.3347 19.1171 11.3588 19.5195 11.2992 19.8157C11.0561 21.0237 10.1859 21.8047 8.97395 21.9834C8.96563 21.9843 8.9573 21.9853 8.94896 21.9861C8.74774 22.0055 8.39166 21.995 8.18074 21.995L5.30029 21.9951C4.95119 21.9954 4.47993 22.0136 4.15305 21.9492C3.72604 21.8622 3.32601 21.6745 2.98631 21.4016C2.46466 20.9756 2.08826 20.3304 2.02005 19.6563C1.99629 19.4214 2.00834 19.0107 2.00856 18.7616L2.00865 15.8505C2.00837 15.5217 1.98808 15.1395 2.04681 14.8208C2.25257 13.7043 3.22448 12.789 4.35886 12.6794ZM8.64358 20.6598C9.05638 20.6294 9.38562 20.5211 9.66758 20.197C9.81127 20.0325 9.91029 19.8338 9.95515 19.62C10.0178 19.3084 10.0044 18.9272 10.0046 18.6056L10.0052 16.1244C10.0057 15.4614 10.0904 14.7868 9.52037 14.3127C9.11462 13.9753 8.74698 13.9977 8.25258 13.9975H7.41383C6.52247 13.9975 5.58297 13.9832 4.6955 14.0033C4.05352 14.0247 3.52868 14.3985 3.37909 15.0521C3.32407 15.2924 3.33716 15.6243 3.33706 15.8749L3.33692 18.3088C3.33705 18.6533 3.33553 18.9915 3.34536 19.3363C3.35628 19.7197 3.50205 20.0514 3.78663 20.3127C3.96039 20.4713 4.17424 20.5794 4.40501 20.6251C4.64694 20.6735 4.96221 20.6674 5.21258 20.6668L6.03773 20.6654C6.89086 20.6652 7.79432 20.681 8.64358 20.6598Z" fill="#717680"/>
<path d="M16.5052 3.28204C16.5535 3.01428 16.6235 2.74167 16.6906 2.47804C16.8366 1.90484 17.6961 1.83963 17.9345 2.36463C18.012 2.53891 18.0481 2.76662 18.0934 2.95928L18.2775 3.77373C18.4109 4.36924 18.5076 4.76358 18.984 5.18725C19.3887 5.54717 19.7302 5.61436 20.2406 5.72947L21.089 5.92134C21.4101 5.99446 21.7836 6.03246 21.938 6.37111C22.0848 6.69293 21.9668 7.12616 21.6269 7.26779C21.4304 7.34968 21.2164 7.38621 21.0088 7.43315L20.2189 7.61133C19.8742 7.68903 19.5378 7.75339 19.2371 7.95105C18.8128 8.22996 18.4974 8.65322 18.3738 9.14751C18.3365 9.29675 18.3031 9.44536 18.2694 9.59531L18.0721 10.4627C18.0337 10.6303 18.0043 10.8239 17.93 10.9775C17.6924 11.469 16.9278 11.4432 16.7225 10.9393C16.646 10.7499 16.6103 10.533 16.5656 10.3327L16.3922 9.56362C16.3438 9.34773 16.2931 9.09469 16.212 8.89161C16.0099 8.38704 15.61 7.98724 15.1054 7.78527C14.891 7.69918 14.6497 7.65232 14.4239 7.60082L13.5608 7.40503C13.2243 7.32911 12.8733 7.29905 12.7172 6.93525C12.6633 6.80954 12.6486 6.53679 12.7155 6.41769C12.7273 6.37863 12.7285 6.37191 12.7491 6.33747L12.7592 6.32805C12.8094 6.20861 12.9229 6.13557 13.0281 6.07041C13.2106 5.99683 13.3906 5.96484 13.5821 5.92185L14.357 5.74689C14.7008 5.66899 14.9994 5.61907 15.3141 5.44927C15.5258 5.33419 15.7152 5.18216 15.8733 5.00036C16.3576 4.44103 16.3152 3.9146 16.5052 3.28204ZM15.8832 6.6614C16.408 6.94081 16.831 7.29574 17.154 7.79952C17.203 7.876 17.2959 8.01366 17.321 8.09433C17.3276 8.09772 17.3342 8.1011 17.3409 8.10449C17.6351 7.52239 18.1852 6.9345 18.7852 6.67014C18.3129 6.44299 17.8579 6.03121 17.5592 5.60499C17.5049 5.52742 17.3679 5.27355 17.3264 5.22756C17.1056 5.77068 16.4234 6.43213 15.8832 6.6614Z" fill="#717680"/>
<path d="M2.00696 4.51744C2.00434 4.59056 2.00574 4.66323 2.00715 4.73582C2.00734 4.7457 2.00753 4.75557 2.00771 4.76544C1.99631 5.25236 1.99995 5.76891 2.00353 6.27676C2.00529 6.52555 2.00703 6.77225 2.00698 7.01236L2.00674 8.2133C2.00675 8.27144 2.00636 8.33235 2.00596 8.39438C2.00497 8.54915 2.00394 8.71092 2.00893 8.8541C2.03161 9.50346 2.36725 10.1735 2.84346 10.6119C3.18973 10.9358 3.61544 11.1624 4.07748 11.2689C4.38797 11.3399 4.71322 11.3368 5.03444 11.3338C5.09822 11.3332 5.16185 11.3326 5.22517 11.3326L7.9861 11.3321C8.0673 11.3321 8.14971 11.3328 8.23259 11.3335C8.43374 11.3352 8.63773 11.3369 8.83384 11.3287C9.97504 11.281 10.99 10.4345 11.2615 9.32835C11.3472 8.97923 11.3419 8.59551 11.3367 8.22622C11.3356 8.14102 11.3344 8.05658 11.3343 7.97351L11.3349 5.16085C11.3349 5.0927 11.3357 5.02311 11.3365 4.95298C11.3385 4.78622 11.3405 4.61647 11.3316 4.45599C11.2627 3.21157 10.226 2.13943 8.98801 2.01832C8.86591 2.00637 8.74089 2.00733 8.61767 2.00828C8.58613 2.00852 8.5547 2.00877 8.52348 2.00879L7.81473 2.00939L7.0139 2.00826C6.98014 2.00822 6.94344 2.00789 6.90531 2.00755C6.78879 2.00651 6.65892 2.00534 6.5587 2.01187C6.27161 2.00164 5.97733 2.00389 5.68489 2.00613C5.54742 2.00719 5.41034 2.00824 5.27462 2.00799C5.19672 2.00784 5.11541 2.0065 5.03261 2.00514C4.81076 2.00149 4.57819 1.99767 4.37188 2.01614C3.09332 2.13061 2.05294 3.23596 2.00696 4.51744ZM3.33846 5.03058C3.33853 4.96304 3.33863 4.87822 3.34357 4.81343C3.35871 4.37973 3.4135 4.07028 3.72871 3.74171C4.00898 3.44955 4.36021 3.34835 4.75727 3.34357C5.64152 3.33587 6.52579 3.33359 7.41007 3.33674L8.19004 3.33686C8.2183 3.33688 8.24737 3.3368 8.27707 3.33671C8.50608 3.33606 8.77194 3.3353 8.98131 3.38101C9.20968 3.43243 9.41913 3.54669 9.58599 3.71088C9.94282 4.05533 10.0033 4.45922 10.0045 4.93153C10.0057 5.44009 10.0055 5.94885 10.0053 6.45755V6.45994C10.0052 6.73338 10.0051 7.00681 10.0052 7.28018L10.0055 8.06752C10.0056 8.11082 10.0059 8.15401 10.0062 8.19708C10.0082 8.46536 10.0101 8.72958 9.94881 8.99389C9.8941 9.22447 9.77604 9.43517 9.60795 9.60222C9.21018 10.0052 8.75075 10.006 8.22547 10.0068L8.21181 10.0069L5.91109 10.007C5.84227 10.0071 5.77349 10.0072 5.70473 10.0074C5.41622 10.008 5.12806 10.0087 4.83898 10.0041C4.40017 9.99728 4.0523 9.918 3.73125 9.59727C3.33618 9.20259 3.33691 8.75348 3.33775 8.24525C3.33779 8.21682 3.33784 8.1882 3.33782 8.1594L3.33844 5.04147L3.33846 5.03058Z" fill="#717680"/>
</svg>
