<svg width="24" height="24" viewBox="0 0 24 24" fill="none" xmlns="http://www.w3.org/2000/svg">
<path d="M10.2715 2.6205C10.9084 2.11868 11.5672 1.93193 12.3715 2.02169C13.0059 2.09248 13.4462 2.39499 13.926 2.77774L14.4931 3.23098L17.1352 5.33791C17.1494 5.34932 17.17 5.36525 17.1937 5.3836C17.2723 5.44444 17.3855 5.53207 17.4162 5.57128C17.5524 5.66362 17.7195 5.79991 17.8705 5.923L17.8706 5.92304L17.871 5.92341C17.9251 5.96746 17.977 6.00983 18.0247 6.04787L20.1583 7.74912C20.2115 7.79149 20.2662 7.83416 20.3215 7.87732C20.5901 8.087 20.8736 8.30832 21.0788 8.56397C21.3401 8.88945 21.5403 9.3038 21.6203 9.7143C21.6684 9.96067 21.6666 10.2202 21.6648 10.4733V10.4734C21.6645 10.5181 21.6642 10.5627 21.6642 10.6069L21.664 19.064C21.664 19.1033 21.6642 19.1426 21.6644 19.1821V19.1822C21.6648 19.2758 21.6652 19.3697 21.6633 19.4628C21.6528 19.965 21.4677 20.458 21.1871 20.869C20.7939 21.4346 20.1947 21.8235 19.518 21.9523C19.2392 22.0035 18.9641 22.001 18.6837 21.9984C18.6228 21.9978 18.5616 21.9973 18.5001 21.9972L16.3313 21.997V16.1475C16.3312 15.6072 16.3542 15.1992 16.2268 14.6641C16.0468 13.899 15.6601 13.1982 15.1087 12.638C14.2832 11.8015 13.1927 11.3179 12.0185 11.3388C11.8765 11.3413 11.7292 11.334 11.5879 11.3467C10.5896 11.4379 9.65482 11.8761 8.94601 12.585C8.13212 13.3791 7.67193 14.4673 7.66902 15.6044L7.66825 20.0998C7.66818 20.2516 7.65961 20.5272 7.67191 20.6718V21.9974L5.64342 21.9972C5.58537 21.9972 5.51832 21.9978 5.44647 21.9985C5.19985 22.0007 4.8967 22.0034 4.70697 21.9841C4.2537 21.9349 3.82068 21.7701 3.44951 21.5054C2.89827 21.1198 2.48731 20.4769 2.37045 19.8153C2.35686 19.7369 2.3482 19.6576 2.34446 19.5781C2.33224 19.4787 2.33414 19.3011 2.33563 19.162C2.33604 19.1233 2.3364 19.0875 2.33644 19.0573L2.33546 10.551C2.33546 10.5174 2.33527 10.4817 2.3351 10.4448C2.33421 10.2593 2.33316 10.0407 2.35198 9.88006C2.40966 9.38768 2.69101 8.79417 3.03029 8.43243C3.21739 8.23294 3.53039 7.99032 3.78976 7.78928C3.84668 7.74516 3.90102 7.70306 3.95087 7.66385L10.2715 2.6205Z" fill="#181D27"/>
<path d="M11.9162 12.6684C12.7372 12.6768 13.4269 12.9057 14.0363 13.4744C14.458 13.8667 14.7576 14.3723 14.8991 14.9306C15.0359 15.4693 14.9999 16.4551 14.9994 17.0381V19.3911C14.9994 19.7746 14.9839 20.2053 14.9932 20.5919L14.9953 20.6686C14.9953 20.6696 14.9953 20.6707 14.9953 20.6718C14.9954 21.186 15.0024 21.9856 15.0026 21.997V21.9971L8.99907 21.9974L8.99886 20.6662C9.01453 20.2939 8.99914 19.7836 8.99907 19.4001L8.99858 16.8724C8.9981 15.6403 8.88526 14.7226 9.73901 13.7127C10.1757 13.1994 10.7747 12.8507 11.4366 12.7244C11.5814 12.6962 11.7582 12.6815 11.9069 12.6692L11.9162 12.6684Z" fill="#181D27"/>
</svg>
