<svg width="24" height="24" viewBox="0 0 24 24" fill="none" xmlns="http://www.w3.org/2000/svg">
<path d="M2.34444 19.5781C2.32882 19.451 2.33628 19.1961 2.33645 19.0573L2.33546 10.551C2.33542 10.3486 2.32942 10.0727 2.35199 9.88004C2.40966 9.38766 2.69101 8.79416 3.03028 8.43242C3.25844 8.18915 3.67383 7.88176 3.95087 7.66383L10.2715 2.62048C10.9084 2.11866 11.5672 1.93194 12.3715 2.02169C13.0059 2.09248 13.4462 2.395 13.926 2.77776L17.1352 5.3379C17.1965 5.38714 17.3762 5.52024 17.4162 5.57127C17.6013 5.69678 17.8436 5.90344 18.0247 6.04785L20.1583 7.74912C20.47 7.99734 20.8313 8.25569 21.0788 8.56396C21.3401 8.88944 21.5403 9.3038 21.6203 9.7143C21.6769 10.0043 21.6644 10.3125 21.6642 10.6069L21.6641 19.064C21.6641 19.1965 21.666 19.3304 21.6633 19.4628C21.6528 19.965 21.4677 20.458 21.1871 20.869C20.794 21.4346 20.1948 21.8235 19.5181 21.9523C19.1786 22.0146 18.8449 21.9973 18.5002 21.9972H5.64344C5.38613 21.9972 4.95197 22.009 4.70696 21.9841C4.25369 21.9349 3.82068 21.7701 3.4495 21.5054C2.89826 21.1198 2.48733 20.4769 2.37048 19.8153C2.35688 19.7369 2.34819 19.6576 2.34444 19.5781ZM7.6719 20.6717C7.6596 20.5272 7.6682 20.2516 7.66827 20.0998L7.66901 15.6044C7.67192 14.4673 8.13213 13.3791 8.94602 12.585C9.65483 11.8761 10.5896 11.4379 11.5879 11.3467C11.7292 11.334 11.8765 11.3413 12.0185 11.3388C13.1927 11.3179 14.2832 11.8014 15.1087 12.638C15.6601 13.1982 16.0468 13.899 16.2268 14.6641C16.3542 15.1992 16.3313 15.6071 16.3314 16.1475V20.666C16.9453 20.6537 17.5672 20.6775 18.1806 20.6665C18.786 20.6556 19.3668 20.7585 19.8628 20.3309C20.4154 19.8545 20.334 19.1673 20.3327 18.5123L20.3337 10.7375C20.3337 9.45472 20.1127 9.44485 19.1653 8.68353L17.6608 7.48352C17.5361 7.38451 17.2015 7.14408 17.1108 7.03794C16.9591 6.93072 16.8036 6.80051 16.6576 6.68342L15.9817 6.14305L13.1425 3.8796C12.977 3.74737 12.7576 3.55831 12.5736 3.467C12.1586 3.26112 11.6067 3.31142 11.2347 3.58631C11.129 3.6644 11.0266 3.74859 10.9243 3.83089L10.4185 4.23518L5.38569 8.24924L4.61777 8.85978C4.16858 9.21789 3.74743 9.481 3.68921 10.111C3.65795 10.4492 3.66585 10.7693 3.66593 11.1081L3.66556 18.9188C3.66652 19.0449 3.6825 19.285 3.66588 19.3945C3.76081 19.7219 3.72987 19.8705 3.97186 20.1656C4.42925 20.7232 5.01932 20.6694 5.66495 20.6686L6.96313 20.6672C7.16998 20.6669 7.47614 20.6568 7.6719 20.6717ZM8.99889 20.6662L14.0679 20.6661L14.6543 20.6653C14.747 20.6651 14.9133 20.6608 15.0026 20.6711C14.989 20.2654 14.9994 19.8002 14.9994 19.3911V17.0381C15 16.4551 15.0359 15.4692 14.8991 14.9306C14.7576 14.3723 14.458 13.8667 14.0363 13.4744C13.4269 12.9057 12.7372 12.6768 11.9161 12.6684C11.7655 12.6809 11.5843 12.6956 11.4366 12.7244C10.7747 12.8507 10.1757 13.1994 9.73903 13.7127C8.88527 14.7226 8.99811 15.6403 8.99859 16.8724L8.99905 19.4C8.99913 19.7836 9.01455 20.2939 8.99889 20.6662Z" fill="#717680"/>
</svg>
