<svg width="24" height="24" viewBox="0 0 24 24" fill="none" xmlns="http://www.w3.org/2000/svg">
<path d="M11.4259 2.00208H12.5648C12.7125 2.04713 13.0407 2.05019 13.2128 2.07246C13.6676 2.12838 14.1181 2.21543 14.5611 2.33301C17.1481 3.02237 19.3522 4.7172 20.6829 7.04033C21.2645 8.057 21.6621 9.16836 21.8573 10.3232C21.896 10.5462 21.9257 10.7707 21.9464 10.9961C21.9563 11.0947 21.973 11.39 21.998 11.4667V12.5413C21.9496 12.6954 21.9418 13.0871 21.9188 13.2691C21.8605 13.718 21.7728 14.1626 21.6559 14.5999C20.9436 17.2266 19.1951 19.4514 16.8111 20.7643C15.8318 21.3058 14.768 21.6779 13.6646 21.8648C13.48 21.896 13.3404 21.9165 13.1585 21.9329C13.0579 21.9419 12.6538 21.9734 12.5838 21.9979H11.429C11.3632 21.9749 11.0526 21.9517 10.9628 21.9438C10.7451 21.9247 10.5671 21.9003 10.3519 21.8634C9.26312 21.6823 8.21197 21.3217 7.24148 20.7959C4.84659 19.4958 3.0832 17.2779 2.35632 14.6516C2.23891 14.221 2.14979 13.7831 2.08954 13.3409C2.07157 13.2026 2.05729 13.0637 2.04672 12.9247C2.03913 12.8336 2.03095 12.6677 2.0022 12.5837V11.4083C2.03216 11.3319 2.0543 10.9658 2.06618 10.8586C2.08716 10.6707 2.11374 10.4835 2.14589 10.2971C2.33629 9.18534 2.71493 8.11415 3.26554 7.12966C4.57028 4.78951 6.7593 3.0706 9.34213 2.35807C9.80007 2.23384 10.2658 2.14048 10.7363 2.07863C10.9088 2.0553 11.2854 2.04697 11.4259 2.00208ZM12.2588 20.9929C17.2256 20.8495 21.1356 16.7068 20.9921 11.7401C20.8486 6.77338 16.7058 2.86344 11.7391 3.00705C6.77251 3.15066 2.86269 7.29325 3.00621 12.2598C3.14973 17.2264 7.29224 21.1364 12.2588 20.9929Z" fill="#181D27"/>
<path d="M12.2588 20.9929C17.2256 20.8495 21.1356 16.7068 20.9921 11.7401C20.8486 6.77338 16.7058 2.86344 11.7391 3.00705C6.77251 3.15066 2.86269 7.29325 3.00621 12.2598C3.14973 17.2264 7.29224 21.1364 12.2588 20.9929Z" fill="#181D27"/>
<path d="M10.0044 15.0699C10.1107 14.9827 10.2637 14.8868 10.3818 14.8079L11.0043 14.3929C11.5825 14.0073 12.1834 13.5937 12.7651 13.2199L14.0244 12.379C14.2046 12.2591 14.4165 12.1256 14.5914 12.0022C14.48 11.9161 14.3297 11.8214 14.2098 11.7416L13.5663 11.3129L11.4837 9.92406L10.45 9.23489C10.3787 9.18725 10.0697 8.97157 10.0054 8.94366C9.99154 9.30492 10.0001 9.71489 10.0002 10.079L10.0003 12.0426L10.0003 13.9995C10.0003 14.3413 9.99127 14.7328 10.0044 15.0699Z" fill="white"/>
</svg>
