<svg width="24" height="24" viewBox="0 0 24 24" fill="none" xmlns="http://www.w3.org/2000/svg">
<path d="M11.4258 2.00195H12.5647C12.7124 2.04701 13.0406 2.05006 13.2127 2.07234C13.6675 2.12825 14.118 2.21531 14.561 2.33289C17.1479 3.02225 19.3521 4.71708 20.6828 7.04021C21.2644 8.05688 21.6619 9.16824 21.8572 10.3231C21.8959 10.5461 21.9256 10.7706 21.9463 10.996C21.9562 11.0946 21.9729 11.3899 21.9979 11.4666V12.5412C21.9495 12.6953 21.9417 13.0869 21.9187 13.2689C21.8604 13.7179 21.7727 14.1625 21.6558 14.5998C20.9435 17.2265 19.195 19.4512 16.811 20.7641C15.8317 21.3056 14.7679 21.6778 13.6645 21.8647C13.4799 21.8958 13.3402 21.9163 13.1584 21.9327C13.0578 21.9418 12.6537 21.9733 12.5837 21.9978H11.4289C11.3631 21.9747 11.0525 21.9516 10.9627 21.9437C10.7449 21.9245 10.567 21.9001 10.3518 21.8632C9.26301 21.6822 8.21187 21.3215 7.24138 20.7958C4.84649 19.4957 3.08309 17.2778 2.35621 14.6515C2.2388 14.2209 2.14968 13.783 2.08943 13.3408C2.07147 13.2024 2.05719 13.0636 2.04661 12.9246C2.03902 12.8335 2.03084 12.6676 2.00209 12.5836V11.4082C2.03205 11.3318 2.0542 10.9657 2.06607 10.8584C2.08705 10.6706 2.11363 10.4833 2.14578 10.297C2.33618 9.18522 2.71483 8.11402 3.26543 7.12954C4.57018 4.78939 6.75919 3.07048 9.34202 2.35795C9.79996 2.23371 10.2657 2.14036 10.7362 2.07851C10.9087 2.05518 11.2852 2.04685 11.4258 2.00195ZM12.2587 20.9928C17.2255 20.8494 21.1355 16.7067 20.992 11.74C20.8484 6.77326 16.7057 2.86331 11.739 3.00693C6.7724 3.15054 2.86258 7.29313 3.0061 12.2597C3.14962 17.2263 7.29214 21.1362 12.2587 20.9928Z" fill="#717680"/>
<path d="M9.62416 7.67836C9.78079 7.66862 9.92627 7.69145 10.0607 7.77772C10.3916 7.99006 10.7176 8.21087 11.0448 8.42903L12.8956 9.66297L14.6847 10.8557C14.9039 11.0021 15.1228 11.1486 15.3428 11.294C15.4752 11.3815 15.6217 11.4674 15.7133 11.6006C15.8212 11.7598 15.8602 11.9558 15.8216 12.1443C15.7947 12.2752 15.7296 12.3954 15.6346 12.4895C15.5402 12.5818 15.3883 12.676 15.276 12.7504L14.8216 13.0523L13.1081 14.1957C12.8743 14.3383 12.5854 14.5433 12.3537 14.6977L10.8425 15.7048C10.5772 15.8818 10.3132 16.0662 10.0425 16.2334C9.80157 16.3755 9.51721 16.3546 9.29193 16.1944C8.97411 15.9683 8.99851 15.6757 8.99905 15.3272L9.00006 14.7422L9.00024 12.7138L8.99989 9.76342L8.99978 8.83664C8.99977 8.66636 8.99077 8.47689 9.00565 8.3087C9.03681 7.95616 9.29019 7.72737 9.62416 7.67836ZM10.0044 15.07C10.1107 14.9828 10.2637 14.8869 10.3818 14.8081L11.0043 14.393C11.5825 14.0074 12.1834 13.5939 12.7651 13.22L14.0244 12.3791C14.2046 12.2592 14.4165 12.1257 14.5914 12.0023C14.48 11.9162 14.3297 11.8215 14.2098 11.7417L13.5663 11.313L11.4837 9.92418L10.45 9.23502C10.3787 9.18737 10.0697 8.97169 10.0054 8.94378C9.99154 9.30504 10.0001 9.71501 10.0002 10.0791L10.0003 12.0427L10.0003 13.9996C10.0003 14.3415 9.99127 14.7329 10.0044 15.07Z" fill="#717680"/>
</svg>
