<svg width="24" height="24" viewBox="0 0 24 24" fill="none" xmlns="http://www.w3.org/2000/svg">
<path d="M20.6671 10.0008C20.667 10.0805 20.6669 10.1593 20.6673 10.2364L20.6651 14.5463L20.666 15.8291C20.666 15.8768 20.6661 15.925 20.6663 15.9735C20.6677 16.47 20.6693 17.0023 20.5501 17.4778C20.3994 18.0734 20.0867 18.6156 19.6468 19.0444C19.2271 19.46 18.6229 19.7881 18.0464 19.9102C17.611 20.0025 17.154 20.0006 16.7079 19.9987C16.6488 19.9985 16.59 19.9982 16.5314 19.9982L9.48904 19.9989C9.34893 19.9939 9.18478 19.9953 9.02865 19.9968C8.95836 19.9974 8.88961 19.998 8.82549 19.998L7.5234 19.9993C7.46218 19.9993 7.40174 19.9995 7.34203 19.9997C6.48869 20.0024 5.78183 20.0047 4.99736 19.5306C4.80059 19.4174 4.58877 19.2695 4.42425 19.1151C3.91379 18.6359 3.54213 18.0028 3.41281 17.3116C3.35193 16.9861 3.3394 16.6685 3.3375 16.3364L3.33776 10.1744C3.33777 10.1194 3.33761 10.064 3.33746 10.0084C3.33614 9.54557 3.33478 9.06731 3.42856 8.62033C3.72667 7.19935 4.98393 6.11521 6.43103 6.01967C6.61917 6.00725 6.81171 6.0046 7.00019 6.0037L16.428 6.00222C16.5024 6.00219 16.5812 6.0016 16.6629 6.00098C17.0871 5.99777 17.5888 5.99397 17.9575 6.06575C18.6036 6.19046 19.1982 6.50374 19.6663 6.96605C20.1519 7.44783 20.508 8.10869 20.6104 8.78876C20.6679 9.17073 20.6675 9.59879 20.6671 10.0008ZM21.9942 9.08746C21.9981 8.23198 21.576 7.18019 21.0526 6.5034C20.2918 5.51964 19.2166 4.88096 17.9814 4.70857C17.6935 4.66837 17.3351 4.67209 17.0111 4.67546C16.9261 4.67634 16.8435 4.6772 16.7651 4.67723L14.975 4.67653L14.2216 4.67729C14.1986 4.6773 14.1726 4.67749 14.1448 4.67769C14.0257 4.67856 13.8736 4.67968 13.7826 4.6677L13.7682 4.66571L13.7811 4.6549C14.1138 4.37313 14.4405 4.07897 14.7668 3.78516C14.9947 3.57996 15.2224 3.3749 15.4519 3.17438C15.8769 2.80288 15.6479 2.02238 15.0535 2.00983C14.9257 2.00714 14.7983 2.01086 14.684 2.07942C14.5091 2.19445 14.3503 2.34081 14.1933 2.48546C14.1297 2.54406 14.0664 2.60243 14.0024 2.65828L12.0093 4.434C11.9344 4.3819 11.8679 4.31808 11.8014 4.25424C11.7497 4.20462 11.6979 4.15497 11.6422 4.11081C11.5781 4.05989 11.5185 4.00349 11.4589 3.94714C11.424 3.9141 11.3891 3.88109 11.3533 3.8492L10.2287 2.84983C10.1973 2.82196 10.1645 2.79497 10.1318 2.76798C10.0942 2.73701 10.0566 2.70604 10.021 2.67376L9.68533 2.37237C9.6752 2.36321 9.66515 2.3541 9.65518 2.34506C9.40139 2.11497 9.19737 1.93001 8.81602 2.02964L8.81249 2.03059C8.7292 2.05297 8.68529 2.06478 8.61674 2.12357L8.61297 2.12568C8.58255 2.14266 8.57832 2.14502 8.55056 2.16926C8.49013 2.22313 8.4561 2.25931 8.42239 2.33484C8.3526 2.40726 8.33529 2.58917 8.33791 2.68692C8.34406 2.91602 8.41446 3.04417 8.58355 3.19693C8.84541 3.4335 9.11078 3.66726 9.37557 3.9005L9.37917 3.90367C9.40752 3.92864 9.43587 3.95361 9.4642 3.97858C9.54503 4.04979 9.6259 4.12269 9.70707 4.19585C9.88706 4.35809 10.0685 4.52163 10.254 4.67094L7.69099 4.67611C7.55951 4.67606 7.42965 4.67468 7.30111 4.6733C6.50429 4.66479 5.75827 4.65682 4.99022 4.9737C4.95866 4.98672 4.91759 5.00547 4.87448 5.02514C4.80134 5.05852 4.72233 5.09458 4.67399 5.1099C4.40173 5.2234 4.03376 5.45577 3.80082 5.64123L3.74466 5.69244C3.7356 5.69945 3.72462 5.70777 3.71276 5.71676C3.67707 5.74381 3.63338 5.77693 3.60965 5.79878C3.60857 5.7998 3.60698 5.80128 3.60496 5.80316C3.60319 5.80481 3.60109 5.80677 3.59871 5.80898C3.56727 5.83825 3.48748 5.91252 3.48137 5.92079C3.3886 5.98431 3.26663 6.12039 3.19638 6.20983C2.65409 6.79223 2.26787 7.57943 2.1016 8.35542C1.99403 8.85746 1.9995 9.35983 2.00506 9.86999C2.00628 9.98237 2.00751 10.0951 2.00753 10.2084L2.00932 15.3681C2.00938 15.5327 2.00708 15.7038 2.00475 15.877C1.99974 16.2501 1.99459 16.6331 2.0125 16.9832C2.11987 19.0821 3.78498 20.9257 5.85826 21.2595C5.88107 21.2633 5.90052 21.2656 5.91706 21.2675C5.99638 21.2769 6.00906 21.2784 6.00666 21.3928C5.99181 21.7168 6.35624 22.0068 6.66431 21.9951C6.77712 21.9908 6.89142 21.9926 7.00591 21.9944C7.11319 21.9961 7.22068 21.9977 7.32724 21.9944C7.42588 21.9913 7.52614 21.9933 7.62672 21.9954C7.80558 21.999 7.98545 22.0027 8.15905 21.9774C8.48114 21.9203 8.66935 21.6345 8.67165 21.3261C8.89898 21.3319 9.13833 21.3308 9.37321 21.3297L9.37375 21.3297C9.46686 21.3292 9.55926 21.3288 9.64993 21.3288H11.4231C11.8228 21.3288 12.2247 21.3299 12.6274 21.3311C13.5311 21.3337 14.4388 21.3364 15.334 21.3259C15.3325 21.5173 15.3823 21.671 15.5229 21.8058C15.6076 21.8872 15.7122 21.9447 15.8262 21.9728C15.9473 22.0024 16.1745 21.9989 16.3579 21.9961C16.4232 21.9951 16.4829 21.9941 16.5303 21.9948C16.6453 21.9944 16.7605 21.9949 16.8757 21.9954C17.0214 21.9961 17.1674 21.9968 17.3127 21.9954C17.7455 21.9914 18.0086 21.7109 17.9982 21.2865C18.9848 21.1331 19.9319 20.6962 20.6396 19.9804C21.2459 19.3624 21.6737 18.5919 21.8778 17.7505C22.0074 17.2087 22.0032 16.7741 21.9981 16.2615C21.9971 16.158 21.9961 16.0514 21.9961 15.9401L21.9942 9.08746Z" fill="#717680"/>
</svg>
