<svg width="24" height="24" viewBox="0 0 24 24" fill="none" xmlns="http://www.w3.org/2000/svg">
<path d="M9.88059 6.28275C9.59762 5.97331 9.39529 5.41837 9.3477 5.00448C9.25908 4.2882 9.46022 3.56619 9.90641 2.99891C10.3465 2.44883 10.9866 2.09561 11.6866 2.01665C12.8229 1.89464 13.8738 2.44954 14.3923 3.47057C14.8345 4.34124 14.7491 5.51954 14.1251 6.2824C14.3384 6.35024 14.5506 6.40704 14.7623 6.48339C16.547 7.12702 18.0674 8.44268 18.9894 10.0972C19.0486 10.2033 19.2099 10.4736 19.2325 10.5817C19.3651 10.7998 19.5121 11.2135 19.5941 11.4588C20.0796 12.9156 20.1378 14.481 19.7614 15.9699C19.3219 17.7049 18.313 19.2423 16.896 20.3359C16.6849 20.4993 16.4676 20.6593 16.2389 20.7975C14.9189 21.5957 13.5628 21.9981 12.0158 21.9997C11.3652 22.0057 10.7165 21.9293 10.0853 21.772C9.44818 21.6141 8.85471 21.3886 8.27431 21.084C8.20201 21.0461 7.99412 20.9413 7.93788 20.8906C7.64863 20.7403 7.35647 20.5288 7.09916 20.3303C5.77 19.3022 4.79796 17.8821 4.32069 16.2711C3.71624 14.22 3.95577 12.0126 4.98607 10.139C5.82996 8.60123 7.15689 7.38428 8.76171 6.67624C9.14611 6.50754 9.4801 6.39847 9.88059 6.28275ZM18.1708 11.5111C17.0584 8.75065 14.2484 7.0644 11.2892 7.38144C8.33001 7.6985 5.94107 9.94175 5.43869 12.8752C4.93632 15.8086 6.44267 18.719 9.12774 20.0026C11.6039 21.1865 14.5529 20.7287 16.5537 18.85C18.5545 16.9711 19.1967 14.0568 18.1708 11.5111ZM12.0458 5.99208C12.7776 5.96663 13.3497 5.35209 13.3228 4.62042C13.296 3.88873 12.6803 3.31778 11.9487 3.34605C11.2191 3.37424 10.65 3.98785 10.6768 4.71754C10.7036 5.44723 11.3161 6.01747 12.0458 5.99208Z" fill="#717680"/>
<path d="M6.5997 15.739C5.93317 13.668 6.50964 11.3983 8.08361 9.89634C9.6576 8.3944 11.9519 7.92483 13.9893 8.68758C16.4707 9.61649 17.9787 12.1392 17.622 14.7646C17.2654 17.3899 15.1391 19.4189 12.4999 19.6522C9.8607 19.8855 7.41142 18.2611 6.5997 15.739ZM13.4118 9.91407C11.8988 9.39023 10.2201 9.74574 9.04932 10.838C7.87854 11.9302 7.40749 13.5801 7.82516 15.1259C8.36189 17.1122 10.2245 18.4449 12.2777 18.3116C14.3311 18.1783 16.0057 16.616 16.2811 14.5769C16.5565 12.5378 15.3562 10.5872 13.4118 9.91407Z" fill="#717680"/>
</svg>
