<svg width="24" height="24" viewBox="0 0 24 24" fill="none" xmlns="http://www.w3.org/2000/svg">
<path fill-rule="evenodd" clip-rule="evenodd" d="M16.6003 18.663C16.6766 18.6632 16.753 18.6634 16.8295 18.6637L16.8287 18.6637C16.7525 18.6634 16.6763 18.6632 16.6003 18.663ZM21.9909 6.83701C21.9915 6.80616 21.9921 6.77474 21.9927 6.74285L21.9927 6.74336C21.9921 6.77508 21.9914 6.80633 21.9909 6.83701ZM21.9939 16.2726C21.9937 16.2583 21.9935 16.244 21.9933 16.2298C21.9935 16.2439 21.9937 16.2583 21.9939 16.2726ZM14.0311 8.66953C14.0081 8.66946 13.985 8.66938 13.962 8.6693L13.9625 8.66931C13.9854 8.66938 14.0082 8.66946 14.0311 8.66953ZM18.095 5.15731C18.0931 5.15916 18.091 5.16119 18.0886 5.16341L18.0957 5.15355L18.095 5.15731ZM18.2485 5.32669C18.247 5.3267 18.2455 5.32672 18.244 5.32674C18.2545 5.32662 18.2647 5.3265 18.2744 5.3264C18.2661 5.32648 18.2574 5.32658 18.2485 5.32669Z" fill="#717680"/>
<path d="M9.938 12.6683C10.101 12.664 10.2515 12.6837 10.388 12.782C10.5297 12.8825 10.6254 13.0353 10.6539 13.2066C10.6733 13.3307 10.6743 14.0298 10.6497 14.1467C10.6303 14.2391 10.5906 14.3261 10.5336 14.4014C10.4171 14.5559 10.267 14.6346 10.078 14.6627C9.87669 14.6668 9.73963 14.6435 9.57304 14.5188C9.29933 14.3157 9.32559 13.9899 9.33017 13.6876C9.33428 13.4157 9.28649 13.1276 9.47557 12.9035C9.60496 12.7502 9.74123 12.6872 9.938 12.6683Z" fill="#717680"/>
<path d="M13.9054 12.6683C14.2232 12.6552 14.5787 12.8077 14.6396 13.1479C14.6736 13.3386 14.6842 13.9298 14.6535 14.1166C14.6402 14.2016 14.6096 14.283 14.5637 14.3559C14.4517 14.5348 14.2989 14.6149 14.1002 14.6621C13.621 14.6783 13.3041 14.4178 13.3268 13.9189C13.3369 13.6971 13.3001 13.3862 13.3433 13.1752C13.3609 13.0864 13.3978 13.0025 13.4513 12.9295C13.5661 12.7735 13.7167 12.6953 13.9054 12.6683Z" fill="#717680"/>
<path d="M9.26841 6.0065C9.61912 5.99513 10.0339 6.0054 10.39 6.00543L13.9807 6.00527C14.231 6.00528 14.4856 5.99788 14.7349 6.01271C15.3575 6.04974 15.5516 6.89751 15.03 7.22806C14.9277 7.29289 14.859 7.31397 14.7399 7.3335C14.3099 7.34056 13.868 7.33535 13.4365 7.33531L9.8438 7.33592C9.55472 7.33593 9.14031 7.38583 8.90905 7.19134C8.45435 6.80894 8.64742 6.07487 9.26841 6.0065Z" fill="#717680"/>
<path d="M2.00227 6.78167C2.00436 6.52922 2.00646 6.27673 2.00139 6.02855C1.9901 5.4755 2.20246 4.95898 2.59747 4.56712C2.86006 4.30902 3.1901 4.13018 3.5497 4.05111C3.80342 3.99319 4.31035 3.99944 4.68266 4.00403C4.77227 4.00513 4.85408 4.00614 4.92269 4.00613L18.9496 4.00743L19.7516 4.00683C19.775 4.00682 19.8024 4.00659 19.8322 4.00633C19.9535 4.00531 20.1139 4.00395 20.2018 4.01572C20.9833 4.03396 21.7911 4.77311 21.9392 5.52671C22.0098 5.88525 22.0005 6.35007 21.9927 6.74285C21.9918 6.78716 21.991 6.83055 21.9902 6.87277C21.9872 7.0518 21.991 7.22384 21.9948 7.39032C22.0107 8.10105 22.0243 8.71046 21.4878 9.33086C21.9838 9.98891 21.9915 10.227 21.9922 11.028L21.9915 16.0533C21.9915 16.1223 21.9927 16.1963 21.9939 16.2726C21.9977 16.504 22.0017 16.7569 21.9747 16.9585C21.8504 17.8875 21.0474 18.6129 20.1202 18.6634C20.1277 18.6804 20.1353 18.6974 20.143 18.7145C20.2661 18.9895 20.3964 19.2805 20.2815 19.5758C20.2164 19.7405 20.0888 19.8729 19.9267 19.9442C19.567 20.1001 19.1468 19.9083 19.0134 19.5426C18.978 19.4458 18.9411 19.3491 18.9042 19.2523C18.8289 19.0552 18.7535 18.8577 18.6905 18.6575C18.0766 18.6673 17.4507 18.6655 16.8295 18.6637C16.5854 18.663 16.342 18.6622 16.1003 18.6622L7.40059 18.6608C7.18489 18.6608 6.9657 18.662 6.74534 18.6632C6.26189 18.6659 5.77284 18.6687 5.30277 18.6582L5.10847 19.1894C5.09555 19.2246 5.08311 19.2603 5.07067 19.2959C4.98095 19.5529 4.89117 19.81 4.62133 19.9347C4.28754 20.0889 3.88193 19.945 3.72461 19.6104C3.5937 19.3318 3.72913 18.9117 3.87505 18.659C2.9094 18.6072 2.07591 17.8182 2.00799 16.8402C1.99941 16.7166 2.00128 16.59 2.00314 16.4638C2.00446 16.3746 2.00577 16.2855 2.0034 16.1979C2.00517 16.0787 2.00399 15.9551 2.00282 15.831C2.00128 15.6694 1.99973 15.5071 2.00471 15.3533C1.99945 15.1275 2.00085 14.89 2.00223 14.6565C2.00285 14.5523 2.00346 14.4489 2.00347 14.3476L2.00239 11.1991C2.00237 11.1478 2.00219 11.0949 2.00201 11.0412C2.0014 10.8599 2.00075 10.6695 2.00611 10.4981C2.01746 10.1347 2.23419 9.58577 2.51167 9.339C2.22191 9.02626 2.04477 8.62579 2.0083 8.201C1.9967 8.05927 2.00001 7.85966 2.00275 7.69448C2.00338 7.65689 2.00397 7.62108 2.00435 7.58814C1.99777 7.32293 2.00002 7.05232 2.00227 6.78167ZM3.33651 7.03011C3.33893 7.31066 3.34135 7.59116 3.33565 7.87043C3.33725 7.89158 3.33866 7.91225 3.34004 7.93247C3.35499 8.15104 3.36644 8.31838 3.56332 8.49375C3.65268 8.57336 3.8305 8.653 3.94895 8.66016C4.16624 8.67332 4.39593 8.67213 4.61936 8.67098C4.68057 8.67066 4.7413 8.67035 4.80119 8.67033L12.1238 8.67042C12.1955 8.67044 12.2715 8.66981 12.3489 8.66917C12.5126 8.6678 12.6828 8.66638 12.8325 8.67098C13.2061 8.66682 13.5848 8.66807 13.962 8.6693C14.1453 8.66991 14.3282 8.67051 14.5101 8.67049L19.228 8.66973C19.2746 8.66975 19.321 8.66985 19.3673 8.66996C19.5787 8.67043 19.7888 8.67089 20.003 8.66368C20.2836 8.65424 20.5832 8.43775 20.6276 8.15014C20.6634 7.91858 20.6596 7.6732 20.6558 7.43071C20.6537 7.29642 20.6517 7.16303 20.6563 7.03336C20.6537 6.97614 20.6552 6.92011 20.6567 6.86407C20.6583 6.80309 20.6599 6.7421 20.6562 6.67959C20.6511 6.59135 20.653 6.49497 20.655 6.39566C20.6604 6.13135 20.6661 5.84626 20.5398 5.63844C20.4298 5.45779 20.2511 5.38694 20.0614 5.34358C19.2535 5.3266 18.4176 5.33037 17.5919 5.33408C17.2432 5.33565 16.8964 5.33721 16.5543 5.3372L10.256 5.33714C9.97081 5.33723 9.68066 5.33894 9.38894 5.34066C8.77308 5.34429 8.15018 5.34796 7.55202 5.33656C6.9902 5.34329 6.4228 5.34198 5.85678 5.34067C5.56084 5.33999 5.26527 5.3393 4.97107 5.33977C4.72035 5.33813 4.46961 5.33829 4.21889 5.34026C4.20817 5.34042 4.19584 5.34057 4.18232 5.34073C4.0915 5.3418 3.94732 5.34351 3.88008 5.35495C3.75136 5.37714 3.63295 5.43946 3.54178 5.533C3.34527 5.73356 3.34163 5.94179 3.33707 6.20311L3.33669 6.22424C3.33187 6.4922 3.33419 6.76118 3.33651 7.03011ZM11.3277 16.9757C11.3281 16.9311 11.3284 16.8879 11.3284 16.8478L11.3293 11.1642C11.3293 11.0701 11.3279 10.9614 11.3264 10.8469C11.3227 10.5582 11.3186 10.2321 11.3342 10.0074C11.2839 9.99618 10.9452 9.99844 10.7832 9.99951C10.7512 9.99973 10.7261 9.99989 10.7115 9.9999L4.70473 9.99971C4.65557 9.99969 4.59971 9.9984 4.53966 9.99703C4.2468 9.99031 3.85421 9.98131 3.65294 10.1042C3.32651 10.3034 3.33086 10.6824 3.3348 11.0255C3.33519 11.0595 3.33557 11.0933 3.33563 11.1264L3.33679 11.972L3.33686 14.693C3.33691 14.8321 3.33805 14.9759 3.3392 15.1213C3.34183 15.4546 3.34453 15.7967 3.33441 16.111C3.34059 16.1999 3.33906 16.2908 3.33753 16.3813C3.33297 16.6524 3.32845 16.9204 3.53138 17.1238C3.63877 17.2298 3.77779 17.2978 3.92735 17.3175C4.06783 17.3373 4.37482 17.3343 4.59131 17.3322C4.64582 17.3317 4.69459 17.3312 4.73352 17.3312L11.3312 17.3272C11.3258 17.2221 11.3268 17.0942 11.3277 16.9757ZM20.4502 17.1267C20.5974 16.9769 20.6307 16.8379 20.6452 16.6333C20.6576 16.4582 20.6566 16.2833 20.6555 16.1081C20.6552 16.0605 20.6549 16.0128 20.6549 15.9652L20.6546 10.9136L20.6544 10.8992C20.6522 10.6361 20.65 10.3896 20.447 10.1944C20.3479 10.099 20.2285 10.0306 20.0906 10.0177C19.8669 9.99693 19.6303 9.9982 19.401 9.99943C19.348 9.99972 19.2954 10 19.2434 10L14.41 10.0003C14.2191 10.0003 14.0273 10.001 13.8352 10.0016C13.4437 10.0029 13.0511 10.0042 12.6627 10.0001L12.666 16.523C12.6661 16.5714 12.667 16.6337 12.6679 16.7028C12.6707 16.9143 12.6743 17.1898 12.6599 17.3278L19.2697 17.3279C19.3286 17.3279 19.3877 17.328 19.4469 17.3282C19.5257 17.3283 19.6046 17.3285 19.6832 17.3283C19.7085 17.3283 19.7334 17.3284 19.758 17.3285C20.0201 17.3298 20.2436 17.3309 20.4502 17.1267Z" fill="#717680"/>
</svg>
