<svg width="24" height="24" viewBox="0 0 24 24" fill="none" xmlns="http://www.w3.org/2000/svg">
<path d="M10.6552 6.4555C11.1854 6.28165 11.761 6.3075 12.2735 6.52818C12.8253 6.7659 13.2612 7.2115 13.4866 7.76839C13.5639 7.96489 13.6318 8.21004 13.6434 8.41413C13.6453 8.44718 13.6489 8.4852 13.6528 8.52631C13.6747 8.75931 13.706 9.09158 13.4889 9.18055C13.4176 9.20979 13.2935 9.21738 13.1928 9.22354C13.1613 9.22546 13.1321 9.22725 13.1075 9.22951C13.0242 9.23768 12.9415 9.25022 12.8596 9.26708C11.5135 9.54329 10.6911 10.9066 11.0661 12.2114C11.082 12.2666 11.1005 12.3184 11.1192 12.371C11.1277 12.395 11.1364 12.4193 11.1448 12.444C10.7022 12.5897 10.243 12.759 9.79113 12.9255C9.59484 12.9978 9.39971 13.0697 9.20816 13.1389L3.90825 15.0563C3.87212 15.0693 3.82628 15.0855 3.77429 15.1039C3.52646 15.1913 3.13867 15.3282 2.99474 15.4075C2.65525 15.5915 2.38033 15.8752 2.20699 16.2204C1.72972 17.1632 2.10505 18.3143 3.05269 18.7929C3.25794 18.8953 3.47969 18.9605 3.70767 18.9856C3.84015 19 4.04286 18.9981 4.21003 18.9965C4.2572 18.996 4.30155 18.9956 4.34068 18.9956L7.17261 18.9955C7.26024 18.9955 7.35248 18.9963 7.44648 18.9971C7.66658 18.9989 7.89633 19.0008 8.09911 18.9935C8.18802 19.0017 8.36634 18.9993 8.50785 18.9973C8.56064 18.9966 8.6083 18.996 8.6443 18.996L19.4594 18.9961C19.5449 18.9961 19.6282 18.9975 19.7099 18.9989C20.1481 19.0064 20.5397 19.0132 20.9642 18.7939C22.271 18.1192 22.3583 16.2771 21.1292 15.4784C20.9189 15.3417 20.6641 15.2534 20.4207 15.1691C20.3651 15.1499 20.31 15.1308 20.2563 15.1114L19.3844 14.7942L18.2888 14.3989C18.2196 14.3737 18.1444 14.3455 18.0668 14.3163C17.8885 14.2494 17.6974 14.1777 17.5381 14.1273C17.5177 14.1168 17.4418 14.0899 17.3912 14.0721C17.3763 14.0668 17.3634 14.0623 17.355 14.0592C17.2157 14.0077 17.0759 13.9575 16.9355 13.9084L15.9048 13.5378L13.7879 12.772C13.3663 12.6165 12.9433 12.465 12.5188 12.3176C12.5013 12.2397 12.4713 12.1597 12.4402 12.0769C12.4021 11.9753 12.3624 11.8694 12.3425 11.7583C12.2942 11.4882 12.3579 11.21 12.519 10.9879C12.7859 10.6139 13.0753 10.5869 13.4448 10.5524C13.5094 10.5464 13.5764 10.5401 13.6461 10.5318C14.0387 10.4846 14.4737 10.1859 14.6977 9.86692C14.9567 9.49827 15.0234 9.12237 15.0012 8.68247C15.0008 8.65765 15.0005 8.6341 15.0001 8.61161L15.0001 8.61029C14.9965 8.36231 14.9948 8.24265 14.9452 7.96301C14.7684 7.01379 14.2227 6.17331 13.4274 5.62565L13.4155 5.61912C13.3628 5.58978 13.3124 5.55828 13.262 5.52679C13.1889 5.48106 13.1158 5.43538 13.0359 5.39652C12.2111 4.99547 11.2702 4.87998 10.3808 5.13026C9.45427 5.38334 8.66732 5.9961 8.19488 6.83229C7.93465 7.29251 7.77704 7.80357 7.73287 8.33041C7.71832 8.49443 7.7067 8.65148 7.75249 8.81169C7.79946 8.97905 7.91247 9.12013 8.06556 9.20248C8.22831 9.29133 8.41452 9.31745 8.59317 9.26258C8.76468 9.21063 8.90842 9.09252 8.99266 8.93436C9.0666 8.79225 9.07479 8.63875 9.08309 8.48323C9.08772 8.39646 9.09239 8.30904 9.10853 8.22264C9.26137 7.39471 9.85479 6.71667 10.6552 6.4555ZM11.4817 17.6623C11.4051 17.6623 11.3238 17.6615 11.2406 17.6608C11.0494 17.6591 10.8488 17.6573 10.675 17.664C10.5633 17.6571 10.4044 17.6591 10.2626 17.6609C10.2031 17.6616 10.1467 17.6624 10.098 17.6624L4.49778 17.6652C4.46264 17.6652 4.42285 17.6658 4.38003 17.6665C4.15361 17.67 3.84222 17.6749 3.68319 17.6037C3.54366 17.5414 3.43501 17.4256 3.38162 17.2824C3.3282 17.1392 3.33599 16.9802 3.40315 16.8429C3.45536 16.7345 3.56903 16.6165 3.68095 16.5743C4.18258 16.3852 4.69036 16.2034 5.19745 16.0218C5.54271 15.8981 5.88786 15.7745 6.2303 15.6489L12.005 13.5576C12.6682 13.788 13.3369 14.0336 14.0043 14.2787C14.4392 14.4385 14.8736 14.598 15.3054 14.753L16.1457 15.058C16.1859 15.0725 16.2275 15.0884 16.2696 15.1045C16.3637 15.1404 16.4606 15.1774 16.551 15.203L19.9046 16.4189C19.9317 16.4289 19.9629 16.4397 19.9966 16.4514C20.1639 16.5095 20.3934 16.5892 20.4908 16.6905C20.8409 17.0545 20.5735 17.6561 20.0706 17.6575C19.8292 17.6634 19.5874 17.6631 19.3456 17.6629C19.3063 17.6628 19.267 17.6628 19.2277 17.6628L11.4817 17.6623Z" fill="#717680"/>
</svg>
