<svg width="88" height="33" viewBox="0 0 88 33" fill="none" xmlns="http://www.w3.org/2000/svg">
<path d="M0.470448 0.79818C1.30821 -0.149256 1.99828 0.00696834 3.13687 0.0133133L5.21581 0.022526L6.911 0.0233445C7.23916 0.0242048 7.61493 0.00165356 7.9238 0.059858C9.4232 0.3424 9.80385 1.36758 10.1109 2.68801C10.1596 2.89759 10.2636 3.13653 10.2936 3.3492C10.468 3.77951 10.5593 4.20921 10.6897 4.64826C10.8539 5.2013 11.0421 5.75325 11.2093 6.30531C11.2809 6.54157 11.4807 7.44846 11.6058 7.54498C11.7239 7.51865 12.2758 6.8998 12.4223 6.76321C12.5787 6.61991 12.7412 6.48341 12.9094 6.35408C14.0524 5.46512 15.0118 5.00446 16.4247 4.63373C17.6582 4.31008 18.655 4.35254 19.9108 4.35365L22.5865 4.36039L29.9424 4.35855L34.518 4.35652C35.2862 4.35568 36.0554 4.3399 36.8255 4.36214C37.7387 4.38848 38.4949 5.11811 38.6925 5.98686C38.8153 6.52598 38.7265 7.41834 38.3325 7.83999C37.5032 8.86599 36.3642 8.65913 35.1779 8.65843L32.232 8.65971L22.1956 8.65645L19.7381 8.64988C19.1618 8.64894 18.4314 8.63822 17.8672 8.70721C16.457 8.95753 15.3837 9.56861 14.5702 10.7567C13.885 11.7575 13.5032 13.2034 13.7266 14.4047C13.9278 15.4867 14.2918 16.4827 14.6093 17.5331C14.8247 18.246 14.9899 19.0824 15.2992 19.7546C15.5164 20.2265 15.8913 20.6488 16.3036 20.9617C16.4944 21.1066 17.0477 21.3587 17.1397 21.4315C17.4799 21.5379 17.851 21.6582 18.2072 21.6757C18.958 21.7125 19.7303 21.7009 20.4828 21.7004L24.5593 21.6915L27.9144 21.6833C28.3089 21.6833 29.2408 21.7116 29.581 21.6792C29.7595 21.5063 30.9859 17.7621 31.0162 17.3365C30.6893 17.3062 30.2495 17.3164 29.9148 17.3163L28.1831 17.3169L22.7092 17.3188C22.1444 17.3193 20.5336 17.3561 20.1106 17.2544C19.5614 17.1192 19.0877 16.773 18.7918 16.291L18.7423 16.1886C18.4536 15.7378 18.3927 14.8271 18.6433 14.354C19.2751 13.1617 20.0373 12.9715 21.2702 13.0099C22.0121 13.033 22.8243 13.01 23.5669 13.0102L29.0595 13.0103L32.2805 13.0112C33.6811 13.012 35.5448 12.7305 36.0588 14.4399C36.2637 15.1569 35.7013 16.6635 35.4716 17.4088L34.4735 20.6386C34.2343 21.433 33.9899 22.2258 33.7404 23.017C33.6313 23.3652 33.4041 24.124 33.2401 24.4264C32.7777 25.3688 32.0472 25.9826 30.9547 26.0114C30.0688 26.0349 29.179 26.0208 28.2925 26.0191L23.5614 26.0135L19.5432 26.012C18.119 26.0173 16.052 26.1183 14.7513 25.6519C13.4328 25.2127 12.2539 24.0212 11.7608 22.744C11.3894 21.7821 11.1099 20.6581 10.8034 19.6632C10.4865 18.6664 10.183 17.6654 9.8931 16.6604C9.77831 16.2637 9.61622 15.7552 9.52649 15.3613L9.52379 15.3416C9.4751 15.2538 9.35463 14.821 9.31724 14.6971C9.18984 14.2744 9.05966 13.8525 8.92669 13.4315C8.40759 11.7733 7.92547 10.1319 7.45384 8.4599C7.20895 7.5917 6.87088 6.70432 6.65088 5.82268C6.54489 5.5151 6.47656 5.21817 6.3667 4.91075C6.30515 4.69662 6.26823 4.53796 6.16065 4.34118C5.82436 4.32149 5.39681 4.33636 5.05233 4.33628L3.002 4.33369C2.65324 4.33297 2.00811 4.34789 1.68682 4.28822C1.38558 4.23263 1.10113 4.10868 0.855322 3.9259C-0.144112 3.18644 -0.261368 1.77173 0.470448 0.79818ZM34.1589 21.1636C34.2221 21.0701 34.241 20.9585 34.2697 20.8471C34.2594 20.8215 34.251 20.7921 34.2343 20.774C34.1572 20.8521 34.0976 20.8971 34.0667 21.0012C34.0829 21.1177 34.0617 21.0738 34.1589 21.1636Z" fill="#DBB42C"/>
<path d="M17.8673 8.7072L17.8532 8.67641C17.9573 8.1408 19.2134 8.54481 19.5914 8.36114C19.6613 8.32714 19.9416 8.33427 20.0312 8.33828L20.0178 8.34402C20.3085 8.36103 20.491 8.36108 20.7821 8.34702L20.3246 8.31166C20.4953 8.27589 21.0736 8.30877 21.2533 8.31893L20.9091 8.33898C21.6515 8.41017 23.125 8.38143 23.8742 8.34301L23.394 8.31849C23.819 8.28878 24.294 8.31701 24.7232 8.33196L24.7094 8.33472C24.9996 8.4223 26.8398 8.34797 27.2504 8.34956L33.4955 8.37467C34.5573 8.37943 35.625 8.42331 36.6877 8.39627C36.8177 8.39296 37.0004 8.39466 37.122 8.36629C37.1148 8.34825 37.0583 8.31002 37.038 8.29429C37.2632 8.2405 38.1285 7.96677 38.1558 7.73349C38.2387 7.74379 38.2593 7.78088 38.3326 7.83998C37.5032 8.86598 36.3642 8.65912 35.1779 8.65842L32.232 8.65971L22.1956 8.65645L19.7381 8.64988C19.1618 8.64893 18.4314 8.63821 17.8673 8.7072Z" fill="#DBB42C"/>
<path d="M14.7513 25.6519C14.9823 25.618 15.6531 25.675 15.8945 25.7186C16.5162 25.831 17.1196 25.8045 17.7541 25.8115C19.3967 25.84 21.0457 25.7885 22.6884 25.8052C23.9038 25.8137 25.1563 25.8591 26.371 25.8266C27.5737 25.7944 28.7631 25.7688 29.9675 25.8044C30.8417 25.8303 31.8342 25.8588 32.5088 25.2013C32.7376 24.9783 32.8755 24.4671 33.2402 24.4264C32.7777 25.3688 32.0472 25.9826 30.9547 26.0114C30.0688 26.0349 29.179 26.0209 28.2925 26.0192L23.5615 26.0135L19.5432 26.012C18.119 26.0173 16.052 26.1183 14.7513 25.6519Z" fill="#DBB42C"/>
<path d="M18.7423 16.1886C18.4536 15.7378 18.3927 14.8271 18.6434 14.354C19.2751 13.1616 20.0374 12.9715 21.2702 13.0099C22.0121 13.033 22.8244 13.01 23.567 13.0102L29.0595 13.0103L32.2805 13.0112C33.6812 13.012 35.5448 12.7305 36.0588 14.4399C35.8828 14.3891 35.4961 13.41 34.718 13.2973C33.9345 13.1838 33.2516 13.1976 32.4676 13.1967L29.9944 13.1899C27.8749 13.1746 25.7557 13.1753 23.6361 13.1917C22.6527 13.1967 21.6628 13.1678 20.6829 13.1828C20.0028 13.1931 19.753 13.4302 19.2675 13.8516C19.2427 13.873 19.2118 14.0788 19.1415 14.136L19.0202 14.1092L18.9694 14.1474L18.9665 14.192L19.0106 14.2323C18.6391 14.6933 18.5905 14.7053 18.6362 15.3772C18.6577 15.6931 18.7727 15.8598 18.7423 16.1886Z" fill="#DBB42C"/>
<path d="M18.7919 16.291C18.789 16.1573 18.7809 15.9978 18.7952 15.8671L18.8286 15.8751L18.8649 15.976C19.0303 16.0218 19.0006 16.2307 19.1302 16.3425L19.2027 16.3114C19.2028 16.3786 19.2008 16.3768 19.177 16.4359C19.2997 16.625 19.7976 16.9721 20.03 16.9636C20.0737 16.962 19.9629 17.1338 20.1989 17.1039C20.442 17.0755 20.5497 17.0203 20.8082 17.0743C21.0892 17.133 21.5537 17.0288 21.8539 17.0571C22.0672 17.0772 22.2583 17.1193 22.4581 17.0969C22.3581 17.0897 22.2637 17.0937 22.179 17.0457L22.1692 17.0221C22.4417 17.0195 22.6362 17.0833 22.93 17.0621C23.3799 17.0295 23.8499 17.047 24.3011 17.0579C24.5301 17.0634 25.0332 16.9887 25.2119 17.0982C25.1312 17.1329 24.9423 17.1118 24.8451 17.1069C24.9376 17.1089 24.9128 17.1154 24.9733 17.1253C25.2623 17.1725 25.6084 17.1086 25.9043 17.1084L25.9138 17.0781C25.7153 17.0607 25.5466 17.1274 25.4018 17.0243C25.9898 16.9918 26.5861 17.0535 27.1708 17.074C27.7878 17.0958 28.4317 16.9555 29.0568 17.0605C29.4763 17.1303 30.3731 16.9283 30.6907 17.0436C30.5663 17.0725 30.5663 17.0235 30.4883 17.0829L30.5123 17.1174C30.6905 17.1196 30.9391 17.1495 31.0162 17.3365C30.6894 17.3062 30.2495 17.3164 29.9148 17.3163L28.1831 17.3169L22.7092 17.3188C22.1444 17.3193 20.5336 17.3561 20.1106 17.2544C19.5614 17.1192 19.0877 16.773 18.7919 16.291Z" fill="#DBB42C"/>
<path d="M0.470459 0.79818C1.30822 -0.149256 1.99829 0.00696834 3.13688 0.0133133L5.21582 0.022526L6.91101 0.0233445C7.23917 0.0242048 7.61494 0.00165356 7.92381 0.059858C9.42321 0.3424 9.80386 1.36758 10.1109 2.68801C10.1596 2.89759 10.2637 3.13653 10.2936 3.3492C10.216 3.34305 10.2179 3.34684 10.1565 3.30223C10.1062 3.1794 10.0956 3.15095 10.0849 3.01778L10.0826 2.98763C10.07 3.00584 10.0574 3.02396 10.0445 3.042C9.89189 2.94061 10.1122 2.90158 9.97252 2.5748C9.92073 2.53508 9.91778 2.53466 9.85355 2.51623L9.83788 2.51188C9.75388 2.40264 9.7781 2.07562 9.73695 1.92552C9.55306 1.25503 9.21115 0.856203 8.59455 0.550511C8.39727 0.208045 8.2944 0.506528 8.02058 0.262822C7.89881 0.154428 7.77051 0.220417 7.57585 0.255413L7.60183 0.256516C6.75407 0.42019 5.13071 0.317095 4.21998 0.29115C3.53047 0.271508 2.8348 0.282851 2.14579 0.293105C1.93086 0.296303 1.72038 0.227931 1.50425 0.242568C1.06754 0.27214 0.790269 0.773802 0.470459 0.79818Z" fill="#DBB42C"/>
<path d="M17.1397 21.4315C17.4799 21.5379 17.851 21.6583 18.2072 21.6757C18.958 21.7125 19.7303 21.7009 20.4828 21.7004L24.5593 21.6915L27.9144 21.6833C28.3089 21.6833 29.2408 21.7116 29.581 21.6792C29.6113 21.7438 29.6038 21.7086 29.588 21.7902C29.5813 21.7954 29.5181 21.8458 29.5181 21.8458C29.2127 21.8352 28.9231 21.8181 28.6169 21.8282L28.8485 21.841C28.7962 21.8686 24.481 21.8526 24.1247 21.847L24.4292 21.8257C23.3289 21.765 22.1907 21.9363 21.0623 21.8475L21.1875 21.8341C20.9908 21.811 20.6032 21.8206 20.3919 21.82C19.91 21.8158 19.4281 21.8171 18.9463 21.824L19.4195 21.8437C18.9156 21.8803 18.3821 21.804 17.8746 21.8141C17.6903 21.8177 17.4711 21.6946 17.2759 21.6615C17.2288 21.6535 17.1572 21.5095 17.1397 21.4315Z" fill="#DBB42C"/>
<path d="M34.2344 20.774C34.2511 20.7921 34.2594 20.8215 34.2697 20.8472C34.2411 20.9585 34.2221 21.0701 34.1589 21.1636C34.0618 21.0738 34.0829 21.1177 34.0668 21.0012C34.0977 20.8971 34.1573 20.8521 34.2344 20.774Z" fill="#DBB42C"/>
<path d="M62.8789 4.35582C63.208 4.28781 63.5493 4.16121 63.8739 4.067C64.3553 3.92743 64.8308 3.78837 65.3069 3.63098C65.2916 5.89602 65.288 8.16111 65.2955 10.4262L65.3013 17.3551C64.6156 17.3627 63.9296 17.3633 63.2439 17.3569C63.1334 17.0688 63.1253 16.8869 63.0674 16.5876C63.0025 16.3994 63.032 16.0876 62.8895 15.997C62.7887 16.0029 62.7408 15.9973 62.6595 16.0602C62.1074 17.0346 60.7101 17.4669 59.6582 17.3639C59.5332 17.3517 58.7194 17.2725 58.6657 17.2969C58.6448 17.3417 58.6331 17.3601 58.6245 17.4088C58.3781 17.3555 58.0345 17.2035 57.8068 17.0932L57.9109 17.0556L57.9235 17.014C57.4613 16.7274 57.1191 16.5844 56.7115 16.1571C56.4443 15.8768 56.2886 15.4996 56.0383 15.2076C55.9921 15.193 55.9529 15.1806 55.9206 15.1704C55.8337 15.071 55.7062 14.662 55.6642 14.5204C55.2786 13.5909 55.2733 11.6425 55.6115 10.6955C55.6383 10.5989 55.6728 10.5129 55.709 10.4198C55.7468 10.4633 55.7438 10.4633 55.7942 10.4901C55.8897 10.4155 55.8357 10.3376 55.9183 10.2002C56.0821 9.92823 56.2265 9.61767 56.3969 9.35003C56.5022 9.19259 56.7171 9.05213 56.8168 8.89937C56.9251 8.71673 57.1191 8.62207 57.2878 8.49709C58.7904 7.38409 61.361 7.37836 62.5782 8.93915C62.6567 9.03985 62.6606 9.03743 62.7778 9.04269C62.8321 9.03818 62.8168 9.03829 62.8691 9.01351L62.8981 8.91212C62.8588 8.7554 62.8613 7.58059 62.8666 7.34898C62.8875 6.39064 62.8282 5.29866 62.8789 4.35582ZM58.9391 10.1645C58.1885 10.7218 57.8745 11.333 57.8152 12.2626C57.755 13.2059 57.9171 13.8854 58.5426 14.6197C59.0368 15.1043 59.5023 15.3272 60.1967 15.36C60.0513 15.4166 59.7217 15.3357 59.6424 15.3888C59.7437 15.4614 59.8116 15.4871 59.9361 15.5031C62.7572 15.8664 63.9541 12.4839 62.3441 10.5308C62.2436 10.4088 62.1007 10.2321 61.929 10.2122L61.871 10.2725C61.709 10.1493 61.5102 10.0111 61.3187 9.9409C60.712 9.7155 60.2462 9.73908 59.6298 9.84702C59.3609 9.95179 59.1897 10.019 58.9391 10.1645Z" fill="white"/>
<path d="M62.8789 4.35582C63.208 4.28781 63.5493 4.16121 63.8739 4.067C64.3553 3.92743 64.8308 3.78837 65.3069 3.63098C65.2916 5.89602 65.288 8.16111 65.2955 10.4262L65.3013 17.3551C64.6156 17.3627 63.9296 17.3633 63.2439 17.3569C63.1333 17.0688 63.1253 16.8869 63.0674 16.5876C63.1114 16.4769 63.0626 16.4627 63.1239 16.3022C63.125 16.3098 63.1264 16.3174 63.1275 16.3251C63.2461 16.5502 63.1915 16.9649 63.3486 17.1865C63.4001 17.2216 63.4624 17.2383 63.5543 17.2366C64.073 17.2273 64.5981 17.2 65.1179 17.1901C65.1309 17.1781 65.1437 17.166 65.1568 17.154C65.1323 16.42 65.1755 15.6684 65.1699 14.9262L65.1426 7.7762C65.1454 6.77114 65.1833 5.76486 65.1644 4.75941C65.1613 4.59328 65.2067 3.92156 65.1215 3.83848C65.029 3.8796 64.2645 4.08649 64.105 4.1312C63.8876 4.19215 63.2213 4.41972 63.0571 4.44617L63.0248 4.45121C62.9914 4.97281 63.0134 9.00692 62.9933 9.03896C62.9218 9.00302 62.9415 9.00486 62.8981 8.91212C62.8588 8.7554 62.8613 7.58059 62.8666 7.34898C62.8875 6.39064 62.8282 5.29866 62.8789 4.35582Z" fill="white"/>
<path d="M55.6115 10.6955C55.6937 10.8379 55.6411 11.0753 55.6104 11.2338C55.5002 11.8032 55.5177 12.3632 55.5199 12.9401C55.5219 13.4483 55.6742 13.941 55.7449 14.4394C55.7499 14.475 55.6881 14.5048 55.6642 14.5204C55.2786 13.5909 55.2733 11.6425 55.6115 10.6955Z" fill="white"/>
<path d="M61.871 10.2725L61.9289 10.2122C62.1007 10.2321 62.2435 10.4088 62.344 10.5308C63.9541 12.4839 62.7572 15.8664 59.9361 15.5031C59.8116 15.4871 59.7437 15.4614 59.6423 15.3888C59.7217 15.3357 60.0513 15.4166 60.1966 15.36C60.323 15.3675 60.5483 15.3609 60.6772 15.3499C61.3036 15.2956 61.8816 14.9897 62.2786 14.5019C62.8143 13.8543 62.9813 13.0477 62.9003 12.231C62.8168 11.3847 62.5186 10.8105 61.871 10.2725Z" fill="white"/>
<path d="M58.5426 14.6197C58.4438 14.6142 58.3828 14.6173 58.3099 14.5279C57.7948 13.8967 57.6116 13.0744 57.6768 12.273C57.6926 12.0815 57.6734 11.7507 57.8096 11.6105L57.8407 11.6604L57.8675 11.6415C57.8691 11.5903 57.885 11.1262 57.892 11.115C58.0735 10.8112 58.5643 10.113 58.9391 10.1645C58.1885 10.7218 57.8744 11.333 57.8151 12.2626C57.755 13.2059 57.917 13.8854 58.5426 14.6197Z" fill="white"/>
<path d="M59.6298 9.84701L59.4773 9.83284L59.4572 9.79888C59.6123 9.67206 60.2056 9.59466 60.4216 9.60967C60.7824 9.63475 61.1346 9.75433 61.4746 9.87079L61.4771 9.89924C61.4239 9.91425 61.3727 9.92942 61.3187 9.94089C60.712 9.71549 60.2462 9.73907 59.6298 9.84701Z" fill="white"/>
<path d="M57.5314 12.1337L57.6021 12.171C57.6656 12.3085 57.672 12.915 57.5609 13.0405C57.5412 13.0161 57.5186 12.9789 57.5008 12.9518C57.4952 12.7889 57.4771 12.2534 57.5314 12.1337Z" fill="white"/>
<path d="M39.572 19.9422C40.0412 19.9605 40.637 19.9405 41.1192 19.94L44.3187 19.9374C45.0787 19.9365 45.8652 19.8936 46.6164 20.0187C49.3225 20.4696 50.4871 22.7573 50.0066 25.3535C49.8457 25.9272 49.6981 26.3217 49.3287 26.8035L49.222 26.7821C49.0553 26.894 48.9071 27.1749 48.7587 27.296C48.6234 27.4068 47.9614 27.7306 47.8845 27.8342L47.879 27.8865C47.5866 27.9082 47.2378 28.0964 46.9399 28.1563C46.1818 28.308 45.393 28.2999 44.6227 28.2913C44.1736 28.2863 43.7081 28.3456 43.2557 28.3297C43.0786 28.3308 42.2364 28.3133 42.1242 28.345L42.1011 28.3762C42.1471 28.445 42.1173 28.4174 42.1997 28.4542C42.1008 28.5068 42.0939 28.4923 42.0488 28.6079C42.0933 28.7535 42.0811 29.5932 42.0822 29.8017C42.09 30.741 42.09 31.6804 42.0819 32.6195C41.2445 32.6142 40.407 32.6164 39.5695 32.6262L39.5631 23.7991C39.5581 22.5135 39.5612 21.2278 39.572 19.9422ZM42.0518 22.3784C42.1123 22.4541 42.0866 25.8757 42.0822 26.2478C43.3186 26.1876 44.6408 26.3231 45.8633 26.1697C46.7678 26.0562 47.4892 25.2862 47.5092 24.3648C47.5265 23.559 47.272 22.8175 46.5111 22.4162C46.0437 22.1628 45.5492 22.1905 45.0317 22.1698C44.7154 22.1738 42.1704 22.1543 42.1047 22.2203C42.0649 22.2605 42.061 22.3251 42.0518 22.3784Z" fill="white"/>
<path d="M39.572 19.9422C40.0412 19.9605 40.637 19.9405 41.1192 19.94L44.3187 19.9374C45.0787 19.9365 45.8652 19.8936 46.6164 20.0187C49.3225 20.4696 50.4871 22.7573 50.0066 25.3535L49.9348 25.3451C49.8543 25.2334 49.9729 24.2483 49.9654 24.0024C49.9036 21.9457 48.7033 20.5328 46.6801 20.1721C46.0568 20.1017 45.4192 20.1407 44.7945 20.1222C43.8476 20.0941 42.9035 20.1214 41.9577 20.1144C41.2417 20.1091 40.4218 20.1616 39.7138 20.1049C39.736 21.3237 39.672 32.2993 39.76 32.4419C39.9387 32.4945 41.6178 32.4864 41.9449 32.4853L41.9204 29.6778C41.9185 29.2568 41.8597 28.952 41.9299 28.5307L41.9672 28.4996C42.0479 28.5436 42.0084 28.5756 42.0488 28.6079C42.0933 28.7535 42.0811 29.5932 42.0822 29.8017C42.09 30.741 42.09 31.6804 42.0819 32.6195C41.2445 32.6142 40.407 32.6164 39.5695 32.6262L39.5631 23.7991C39.5581 22.5135 39.5612 21.2278 39.572 19.9422Z" fill="white"/>
<path d="M45.0317 22.1698C44.8078 22.0742 43.1324 22.1508 42.7977 22.1301C42.6304 22.1198 42.3344 22.1598 42.1496 22.0883L42.139 22.0459C42.235 21.9918 43.4884 22.0043 43.874 22.0134C44.9543 22.0389 46.755 21.8478 47.362 23.0398C47.7217 23.7465 47.7629 24.551 47.4371 25.2364C46.6968 26.4192 45.758 26.3749 44.5525 26.401C43.7368 26.4247 42.9202 26.4267 42.1042 26.4071C42.075 26.3683 41.9419 26.1956 41.9385 26.1635C41.8918 25.6778 41.9358 25.1295 41.9385 24.6479C41.9422 24.0034 41.9377 23.3865 41.9288 22.744C41.9263 22.5726 41.9875 22.4592 41.9349 22.3125C41.933 22.2989 41.931 22.2853 41.9291 22.2718L41.9555 22.241L41.9277 22.2551L41.9614 22.2342C42.0262 22.2818 42.0248 22.2976 42.0518 22.3784C42.1123 22.4541 42.0867 25.8757 42.0822 26.2478C43.3186 26.1876 44.6408 26.3231 45.8633 26.1697C46.7678 26.0562 47.4892 25.2862 47.5092 24.3648C47.5265 23.559 47.272 22.8175 46.5111 22.4162C46.0437 22.1628 45.5492 22.1905 45.0317 22.1698Z" fill="white"/>
<path d="M56.2346 30.7424C55.1201 28.9923 55.2543 25.5247 56.8613 24.0805C58.3619 22.7317 60.8328 22.5072 62.4084 23.8762C62.5075 23.9623 62.6391 24.2021 62.7527 24.3238C62.8173 24.3193 62.853 24.314 62.9167 24.3023L62.9518 24.3018C63.0295 24.1988 63.1361 23.3021 63.2402 23.0057C63.8789 23.009 64.6699 23.0265 65.3021 22.9874L65.2977 28.4416C65.2952 29.8156 65.2737 31.2516 65.3033 32.6189C64.6468 32.6142 63.8452 32.6409 63.204 32.6181C63.1475 32.4672 62.9791 31.8252 62.9858 31.679C62.9151 31.488 62.9627 31.3959 62.897 31.2461L62.8413 31.2341L62.7522 31.3054L62.7118 31.2216C62.5732 31.3001 62.4924 31.5164 62.3936 31.6383C62.3457 31.6974 62.1837 31.7781 62.1525 31.8246C61.9579 32.1144 61.7145 32.2233 61.3941 32.3589C60.4639 32.7523 59.4076 32.7481 58.4452 32.4688C58.2898 32.424 57.6105 32.1648 57.5406 32.0512C57.2658 31.9488 56.8864 31.5679 56.6881 31.3457C56.6397 31.3159 56.574 31.2391 56.5317 31.1946C56.5823 31.1291 56.5745 31.1561 56.5862 31.0799C56.5308 30.9922 56.3574 30.731 56.2719 30.6987L56.2346 30.7424ZM65.1384 23.654L65.1061 23.5945L65.0808 23.5968C65.0056 23.8349 65.0076 24.4225 65.0427 24.6744C65.0669 24.7067 65.0661 24.7126 65.0972 24.7362C65.1334 24.8153 65.1014 24.9606 65.1437 25.1012L65.1613 25.087C65.168 24.605 65.1526 24.1357 65.1384 23.654ZM62.8254 26.973C62.8357 26.7453 62.9493 26.7458 62.8104 26.4495C62.6135 26.0297 62.3179 25.565 61.8905 25.3512C61.8184 25.3152 61.7981 25.3414 61.7287 25.3695C61.5971 25.2874 61.5414 25.2555 61.3988 25.1963C60.842 24.9248 60.0975 24.9116 59.5196 25.1091C57.8898 25.666 57.4824 27.4043 57.9446 28.9005C58.6142 31.0679 61.7137 31.1525 62.6063 29.1441C62.934 28.4027 62.9482 27.8133 62.8418 27.0198L62.8254 26.973Z" fill="white"/>
<path d="M65.0973 24.7362C65.0661 24.7127 65.0669 24.7068 65.0427 24.6744C65.0076 24.4226 65.0057 23.8349 65.0808 23.5968L65.1062 23.5945L65.1385 23.654C65.1527 24.1357 65.168 24.6051 65.1613 25.087L65.1438 25.1012C65.1014 24.9606 65.1335 24.8153 65.0973 24.7362Z" fill="white"/>
<path d="M63.2403 23.0057C63.8789 23.009 64.6699 23.0265 65.3022 22.9875L65.2977 28.4417C65.2952 29.8156 65.2738 31.2516 65.3033 32.6189C64.6468 32.6142 63.8453 32.6409 63.2041 32.6181C63.1476 32.4672 62.9791 31.8252 62.9858 31.679C63.0189 31.5409 62.983 31.4794 63.039 31.2842C63.0807 31.3825 63.0732 31.5404 63.0983 31.6489C63.1448 31.8497 63.2191 32.2211 63.2962 32.4004C63.4519 32.4778 65.0023 32.4875 65.1232 32.4098C65.1638 32.1234 65.0953 31.7826 65.1154 31.4894C65.1649 30.721 65.166 29.9367 65.1298 29.1675C65.0937 28.3952 65.139 27.6329 65.1198 26.8581L65.0447 26.9569C65.0602 26.8358 65.0839 26.7511 65.0783 26.6261C65.0566 26.1353 65.0739 25.6573 65.085 25.1673C65.004 25.0424 64.9954 24.8455 65.0973 24.7362C65.1335 24.8153 65.1014 24.9606 65.1438 25.1012L65.1613 25.087C65.168 24.605 65.1527 24.1357 65.1385 23.654C65.1446 23.4849 65.1471 23.2976 65.1666 23.131C64.9169 23.1305 63.519 23.0857 63.3889 23.2225C63.1629 23.4601 63.3372 24.1804 63.0646 24.3183C63.0342 24.3132 62.9802 24.302 62.9518 24.3018C63.0295 24.1988 63.1361 23.3021 63.2403 23.0057Z" fill="white"/>
<path d="M56.6882 31.3458C56.88 31.3867 57.497 31.7887 57.5769 31.9697C57.5671 31.9931 57.5532 32.0307 57.5407 32.0513C57.2659 31.9488 56.8864 31.5679 56.6882 31.3458Z" fill="white"/>
<path d="M62.8418 27.0198C62.8594 26.9839 62.8627 26.9054 62.8672 26.8608L62.9092 26.8408C63.0147 26.9945 63.0381 27.3812 63.0484 27.5725C63.0902 28.3283 62.8761 28.9801 62.5601 29.6558C62.5038 29.6951 62.4601 29.7048 62.3955 29.726C61.7571 30.7291 60.2306 30.9351 59.1944 30.5033C58.9224 30.39 57.9087 29.6341 58.0671 29.3125C57.7828 29.2465 57.6726 28.3913 57.6467 28.1298C57.4774 26.4264 58.4012 25.0902 60.122 24.8293C60.4483 24.7799 61.256 24.9206 61.516 25.1353L61.5191 25.1706L61.3988 25.1963C60.842 24.9248 60.0975 24.9116 59.5196 25.1091C57.8897 25.666 57.4824 27.4043 57.9446 28.9005C58.6142 31.0679 61.7137 31.1525 62.6063 29.1441C62.934 28.4027 62.9482 27.8133 62.8418 27.0198Z" fill="white"/>
<path d="M61.7288 25.3695C61.7981 25.3414 61.8184 25.3153 61.8905 25.3513C62.3179 25.565 62.6136 26.0297 62.8104 26.4495C62.9493 26.7459 62.8357 26.7453 62.8254 26.973C62.5916 26.1793 62.3864 25.8764 61.7288 25.3695Z" fill="white"/>
<path d="M39.7569 14.3055C39.8234 14.303 39.7934 14.3121 39.8502 14.2773C39.8763 14.0591 39.7382 13.8087 39.7238 13.6083C39.672 12.8776 39.6263 12.1048 39.7942 11.386C39.9 10.9341 39.9735 10.4413 40.2536 10.0616C40.3162 9.96323 40.368 9.81489 40.437 9.72346C41.0821 8.86552 41.9574 8.30956 42.958 7.95136C43.0045 7.93471 43.773 7.79394 43.8406 7.78965C44.5536 7.74427 45.3707 7.70237 46.0698 7.84918C46.5974 7.96001 47.0537 8.10047 47.5243 8.35705C47.6044 8.40057 47.7809 8.4513 47.8238 8.51745C47.7531 8.52068 47.7127 8.52878 47.6479 8.47652C47.5432 8.39239 47.4538 8.39208 47.3168 8.37278C47.4265 8.41357 47.5293 8.44489 47.6239 8.51344L47.6092 8.53114C47.4953 8.54715 47.4588 8.4967 47.333 8.45617L47.3188 8.4697C47.3452 8.49097 47.3731 8.51102 47.4015 8.52981C47.5173 8.60593 47.8221 8.76813 47.9591 8.74076L47.982 8.69633L47.9402 8.60322L47.9611 8.60378L47.9458 8.61442L47.9775 8.615C48.5335 9.00639 48.9405 9.48935 49.2949 10.0574C49.3317 10.1165 49.349 10.1016 49.435 10.1147C49.5539 10.3132 49.6566 10.6116 49.7343 10.8328C50.0564 11.5504 50.1182 13.2932 49.8437 14.0432C49.5216 15.4278 48.4992 16.4991 47.2227 17.0683C45.6255 17.7292 43.5132 17.7918 41.9778 16.9254L41.8313 16.8475C41.9154 16.8242 41.9054 16.8406 41.9538 16.7857C41.9118 16.7256 41.6793 16.6204 41.5897 16.5632C41.0359 16.2093 40.7455 15.8095 40.3193 15.3281L40.2822 15.3337L40.255 15.4146C40.025 15.0636 39.8869 14.7004 39.7569 14.3055ZM42.1036 11.5572C41.7046 12.5961 41.9516 13.7724 42.7348 14.5632C43.5179 15.3539 44.6917 15.6121 45.7344 15.2232C46.7773 14.8343 47.495 13.8703 47.5691 12.7598C47.6476 11.5827 46.9875 10.4803 45.9125 9.99372C46.0158 9.97337 46.0089 9.99141 46.0735 9.93077C45.9668 9.80504 45.6208 9.69493 45.4821 9.83937C45.3226 9.79641 45.16 9.76748 44.9957 9.75289C44.5327 9.71183 44.067 9.7853 43.6396 9.96688C42.933 10.2668 42.3787 10.8408 42.1036 11.5572ZM49.4795 10.8566C49.4676 10.6865 49.5271 10.4044 49.3361 10.3508C49.3044 10.5353 49.4219 10.685 49.467 10.8742L49.4795 10.8566Z" fill="white"/>
<path d="M41.9778 16.9254C42.0844 16.8244 42.0919 16.8628 42.23 16.9141C42.3884 16.9731 42.5279 17.0601 42.695 17.1041C44.0625 17.4639 45.4159 17.523 46.7806 17.1142C46.8992 17.0786 47.0635 16.9823 47.1804 17.0032L47.2228 17.0683C45.6255 17.7292 43.5132 17.7918 41.9778 16.9254Z" fill="white"/>
<path d="M49.7343 10.8329C50.0564 11.5505 50.1182 13.2932 49.8437 14.0432C49.8323 13.7866 49.7842 13.563 49.8259 13.2889C49.8011 13.2391 49.9041 13.1322 49.9041 13.1316C49.8858 12.5583 49.8499 11.9863 49.7541 11.4201C49.7187 11.2105 49.6781 11.0444 49.7343 10.8329Z" fill="white"/>
<path d="M42.8016 14.8153C42.7991 14.8101 42.7966 14.805 42.7941 14.7998C41.8839 13.9873 41.6431 12.7284 41.985 11.5847C42.0017 11.5292 42.0184 11.4668 42.0816 11.4335L42.1036 11.5572C41.7046 12.5961 41.9516 13.7725 42.7348 14.5632C43.5179 15.3539 44.6917 15.6122 45.7343 15.2232C46.7773 14.8343 47.495 13.8703 47.5691 12.7598C47.568 12.5738 47.5524 12.0526 47.5142 11.8883C47.7422 12.4296 47.6487 13.0362 47.4947 13.584C47.2436 14.4776 46.6834 15.0133 45.8346 15.3576C45.1302 15.637 44.3448 15.6308 43.6452 15.3404C43.5458 15.2981 43.2131 15.1352 43.1343 15.0633C43.1112 15.1153 43.1165 15.1016 43.0772 15.146L43.016 15.1367L43.0541 15.1224C42.9205 15.124 42.7509 14.9927 42.7275 14.8645L42.8016 14.8153Z" fill="white"/>
<path d="M42.8016 14.8152C42.9116 14.9047 43.0118 14.9908 43.1343 15.0633C43.1112 15.1153 43.1165 15.1015 43.0772 15.146L43.016 15.1367L43.0541 15.1224C42.9205 15.124 42.7509 14.9927 42.7275 14.8645L42.8016 14.8152Z" fill="white"/>
<path d="M43.6396 9.96689C43.5814 9.9491 43.5758 9.94225 43.526 9.91035L43.536 9.87412C43.6463 9.84085 43.7537 9.79815 43.8581 9.7482C44.3646 9.50534 45.0305 9.59184 45.5626 9.67423C45.3488 9.73559 45.1494 9.69338 44.9957 9.7529C44.5327 9.71184 44.067 9.78531 43.6396 9.96689Z" fill="white"/>
<path d="M45.4821 9.83938C45.6208 9.69494 45.9668 9.80505 46.0735 9.93078C46.0089 9.99142 46.0158 9.97338 45.9125 9.99373C45.7733 9.93076 45.6294 9.87914 45.4821 9.83938Z" fill="white"/>
<path d="M49.3362 10.3507C49.5272 10.4044 49.4676 10.6865 49.4796 10.8566L49.467 10.8742C49.4219 10.685 49.3044 10.5353 49.3362 10.3507Z" fill="white"/>
<path d="M76.9615 29.7872C76.9292 29.7048 76.8969 29.5979 76.8712 29.5127C76.3058 27.6357 76.6992 25.1455 78.3112 23.8868C79.8079 22.7181 82.0761 22.4804 83.8128 23.1939C84.0144 23.2767 84.2692 23.3889 84.4401 23.5187C84.6344 23.6051 84.8672 23.7953 85.0331 23.9331C86.1206 24.9435 86.4424 25.9982 86.5301 27.4761C86.5418 27.6699 86.5783 28.4333 86.4728 28.5655C86.4218 28.5873 81.3094 28.6051 80.8135 28.5706C80.5485 28.5778 79.319 28.5525 79.1754 28.5945C79.1258 28.6772 79.1311 28.7067 79.1592 28.8178L79.1684 28.8529C78.8716 29.2902 79.7389 30.1452 80.0952 30.3524C80.9346 30.8399 82.0288 30.9309 82.9712 30.7778C83.5807 30.6753 84.0651 30.2861 84.5442 29.9303C84.5487 29.927 84.6094 29.9551 84.6127 29.9609C84.8797 30.1915 85.1214 30.4882 85.3711 30.7405C85.5064 30.8775 85.7818 31.0999 85.8736 31.2185C85.7929 31.4507 84.9902 31.9638 84.7335 32.0858C83.5361 32.6537 82.2476 32.7016 80.9474 32.5824C80.6434 32.5546 80.3433 32.456 80.0476 32.4385C79.9354 32.3121 79.6729 32.2862 79.4883 32.2007C78.9114 31.9338 78.415 31.6002 77.9384 31.1823C77.8206 31.0788 77.7424 30.8972 77.6029 30.8101C77.5695 30.8535 77.5731 30.8772 77.5689 30.9318C77.2947 30.5361 77.1371 30.2282 76.9615 29.7872ZM84.1378 26.9357C84.2216 26.9324 84.2018 26.9446 84.265 26.9051C84.329 26.7578 84.2338 26.4175 84.1776 26.2491C84.0269 25.796 83.4415 25.2139 83.018 24.9918C82.9528 24.9577 82.8969 24.9952 82.8337 25.0208L82.785 25.0097C82.428 24.8381 82.1243 24.8251 81.7342 24.7945C80.884 24.8423 80.2988 24.9962 79.672 25.6139C79.4755 25.8074 78.986 26.6796 79.1985 26.9268C79.5615 26.9594 80.1289 26.9424 80.5045 26.9424L82.8278 26.9402C83.0653 26.9399 83.9406 26.975 84.1378 26.9357ZM83.7853 27.1078C83.8975 27.1083 84.0217 27.1225 84.1172 27.0747L84.1222 27.0279C84.0542 26.9767 83.4242 26.9936 83.2894 26.9928C82.0071 26.9867 80.725 26.9889 79.4426 26.9998C79.3341 27.0078 79.2336 27.0059 79.1397 27.0619C79.2096 27.1033 83.4053 27.1253 83.7853 27.1078Z" fill="white"/>
<path d="M76.9615 29.7872C76.9292 29.7048 76.8969 29.5979 76.8712 29.5127C76.3058 27.6357 76.6992 25.1455 78.3112 23.8868C79.8079 22.7181 82.0761 22.4804 83.8128 23.1939C84.0144 23.2767 84.2692 23.3889 84.4401 23.5187C84.4145 23.533 84.3777 23.5639 84.3527 23.5521C80.9597 21.9538 76.6507 23.5653 76.8119 27.7465C76.822 28.004 76.7977 28.3077 76.822 28.5594C76.8456 28.8069 76.9651 29.1842 77.0052 29.4367C77.0319 29.6046 77.1243 29.675 76.9615 29.7872Z" fill="white"/>
<path d="M85.0331 23.9331C86.1206 24.9435 86.4424 25.9982 86.5301 27.4761C86.5418 27.6699 86.5783 28.4333 86.4727 28.5655C86.4218 28.5873 81.3093 28.6051 80.8135 28.5706C80.6852 28.4706 79.461 28.5669 79.1472 28.4748C79.2352 28.4174 80.0585 28.4389 80.2205 28.4344C82.2818 28.379 84.3596 28.4946 86.4187 28.443C86.299 27.7292 86.4491 27.0271 86.2478 26.3257C86.127 25.9051 86.1013 25.7152 85.7628 25.426C85.7088 25.3799 85.8338 25.1382 85.8168 25.106C85.7553 24.9895 85.6063 24.9063 85.5089 24.822C85.5117 24.8245 85.4532 24.5498 85.4449 24.5263C85.4053 24.4128 85.2539 24.2761 85.1614 24.2271L85.1119 24.1785C85.0562 24.0838 85.0225 24.0447 85.0331 23.9331Z" fill="white"/>
<path d="M85.1119 24.1785L85.1615 24.2271C85.1949 24.3389 85.3691 24.4296 85.3452 24.5577L85.2912 24.571C85.2018 24.4525 85.081 24.4142 84.959 24.3084L84.9702 24.2572C85.022 24.2251 85.0551 24.2034 85.1119 24.1785Z" fill="white"/>
<path d="M79.4426 26.9998C80.725 26.9889 82.0071 26.9867 83.2894 26.9928C83.4242 26.9936 84.0542 26.9766 84.1221 27.0279L84.1171 27.0746C84.0216 27.1225 83.8975 27.1083 83.7853 27.1078C83.4052 27.1253 79.2096 27.1033 79.1397 27.0618C79.2335 27.0059 79.334 27.0078 79.4426 26.9998Z" fill="white"/>
<path d="M82.8337 25.0208C82.8969 24.9952 82.9528 24.9577 83.018 24.9918C83.4415 25.2139 84.0269 25.796 84.1776 26.2491C84.2338 26.4175 84.329 26.7578 84.265 26.9051C84.2018 26.9446 84.2216 26.9324 84.1378 26.9357C84.1439 26.84 84.074 26.5181 84.0445 26.4185C83.8541 25.7761 83.3969 25.3401 82.8337 25.0208Z" fill="white"/>
<path d="M81.0248 24.7505C81.5842 24.5478 82.1928 24.6499 82.7599 24.8393C82.7922 24.8501 82.8301 24.8882 82.8534 24.913L82.8596 24.9544L82.785 25.0098C82.428 24.8381 82.1243 24.8251 81.7342 24.7945C81.7916 24.7933 81.852 24.8004 81.8974 24.7707C81.6123 24.7447 81.3133 24.7653 81.0248 24.7505Z" fill="white"/>
<path d="M66.9286 14.0447C66.9005 13.9136 66.8735 13.7822 66.8479 13.6505C66.3117 10.8483 67.7895 8.19401 70.6913 7.6743C71.9372 7.45118 73.5801 7.57452 74.6523 8.31701C74.9031 8.46176 75.2461 8.72572 75.4349 8.94636C75.414 9.10747 75.6799 9.41598 75.7726 9.57239C76.2966 10.4558 76.6095 11.4453 76.5335 12.4796C76.5179 12.6924 76.5638 13.0685 76.4734 13.2622C76.1537 13.3057 75.7629 13.2674 75.4318 13.2789C73.8716 13.3331 72.32 13.1647 70.7598 13.2852C70.5535 13.3012 69.468 13.223 69.3655 13.2995C69.5641 13.387 69.6359 13.3514 69.7609 13.4036C69.63 13.404 69.4026 13.3866 69.2965 13.4427C69.2625 13.5408 69.4048 13.8948 69.4569 14.0008C69.7573 14.6123 70.3611 15.1722 71.0221 15.3662C70.9291 15.3663 70.9146 15.3646 70.8261 15.3881L70.8169 15.4277C70.9319 15.4889 71.6399 15.6108 71.8175 15.6395C72.6157 15.741 73.5125 15.5085 74.2241 15.1467C74.3931 15.0608 74.6256 14.7163 74.7998 14.7469C74.9148 14.8884 75.0732 14.9413 75.1704 15.0903C75.3043 15.2955 75.2626 15.4427 75.4527 15.6359C75.6042 15.7895 75.86 15.8673 75.9797 15.968C75.9218 16.223 75.0682 16.7954 74.8001 16.9009C74.0342 17.2024 73.0428 17.4231 72.2179 17.404C69.9087 17.3504 68.1135 16.7453 67.1942 14.4644L67.0625 14.4635C67.0199 14.3765 66.959 14.1474 66.9286 14.0447ZM69.2431 11.7474C70.4747 11.6998 71.754 11.7538 72.9888 11.7396C73.1842 11.7373 74.0807 11.7457 74.2249 11.7104C74.338 11.5289 74.0957 11.0542 74.0389 10.8462C74.0448 10.7637 74.0565 10.6554 74.0128 10.5823C73.8379 10.2906 73.5849 9.98502 73.2658 9.84805C73.2101 9.82419 73.1723 9.85857 73.1235 9.88321L72.8084 9.74242C72.0308 9.558 71.6104 9.53325 70.8342 9.73632C69.7857 10.2026 69.4811 10.6318 69.2431 11.7474Z" fill="white"/>
<path d="M66.9286 14.0447C66.9005 13.9136 66.8735 13.7822 66.8479 13.6505C66.3117 10.8483 67.7895 8.19401 70.6913 7.6743C71.9372 7.45118 73.5801 7.57452 74.6523 8.31701L74.5952 8.35755C74.5387 8.35318 74.539 8.34894 74.4875 8.37022L74.5036 8.40836C74.6289 8.45636 74.6584 8.46229 74.7375 8.56947L74.7027 8.60803C74.7247 8.74484 74.9265 8.81328 74.9532 8.88475L74.9029 8.88681C74.7522 8.80874 74.5757 8.667 74.4691 8.53509C74.3558 8.52117 74.3254 8.49007 74.2575 8.4024C74.1472 8.25949 74.0707 8.27266 73.8997 8.23371L73.88 8.19933L73.8939 8.16297C73.9524 8.15283 74.0025 8.14546 74.0615 8.13855C73.6979 7.96329 73.3869 7.96251 73.0823 7.84722L72.9735 7.80702C72.8471 7.7799 71.9834 7.68076 71.8891 7.71425C71.6404 7.80223 71.354 7.74404 71.097 7.77211C70.3678 7.85176 69.5691 8.09982 68.9465 8.49731C67.9651 9.13598 67.2747 10.1355 67.0247 11.2795C66.8796 11.9588 66.9083 12.6329 66.9214 13.3227C66.9256 13.5425 67.1177 13.8776 66.9286 14.0447Z" fill="white"/>
<path d="M69.2553 11.7984C69.6612 11.7854 74.1723 11.7717 74.2505 11.8024L74.2634 11.8455C74.1612 11.947 73.456 11.8991 73.285 11.8974L72.0542 11.8908L72.0333 11.9158C72.2207 11.9423 72.5517 11.9195 72.8131 11.9498L72.8053 11.9626C72.5389 11.9727 71.9219 12.0035 71.6736 11.9719C71.7059 11.9188 71.7034 11.9439 71.7048 11.8912C71.0686 11.9272 69.9956 11.8935 69.3202 11.8817C69.2876 11.8811 69.2756 11.8369 69.2553 11.7984Z" fill="white"/>
<path d="M70.8342 9.73634L70.7156 9.71309L70.7008 9.67948C70.8857 9.5339 71.7396 9.38618 71.9918 9.42886C72.1355 9.45316 72.8746 9.59874 72.944 9.68681C72.8866 9.74032 72.8983 9.72406 72.8084 9.74243C72.0308 9.55801 71.6104 9.53326 70.8342 9.73634Z" fill="white"/>
<path d="M73.1235 9.88321C73.1723 9.85858 73.2101 9.82419 73.2658 9.84805C73.5849 9.98503 73.8379 10.2906 74.0128 10.5823C74.0565 10.6554 74.0448 10.7637 74.039 10.8462C73.8162 10.4228 73.5275 10.1352 73.1235 9.88321Z" fill="white"/>
<path d="M80.7584 9.12572C80.85 8.95826 81.1495 8.6683 81.3063 8.53753C82.0936 7.87975 82.8774 7.69361 83.8849 7.7354C84.1917 7.7364 84.4852 7.77474 84.7872 7.81218C85.1063 7.85177 85.5184 8.17178 85.809 8.08622C85.8744 8.12102 86.0791 8.2276 86.1189 8.28147C88.0065 9.72759 87.4057 12.567 87.5056 14.6393C87.5482 15.5229 87.4764 16.4601 87.5059 17.3522C86.6774 17.3757 85.8282 17.3568 84.9969 17.3662L84.9902 13.6361C84.9902 12.9339 85.0236 12.1251 84.9234 11.431C84.8627 11.01 84.6013 10.4576 84.2755 10.1826C83.506 9.53254 82.009 9.6628 81.3188 10.3802C81.0042 10.7046 80.7965 11.1542 80.711 11.5976C80.5902 12.3449 80.6306 13.2816 80.6314 14.047C80.6325 15.1338 80.613 16.2341 80.6264 17.3159L80.627 17.3601C79.7976 17.3598 78.9484 17.3511 78.121 17.3638L78.1243 10.8838C78.1177 9.846 78.1207 8.80811 78.1338 7.77034C78.7769 7.80141 79.5807 7.77137 80.2319 7.75948C80.2912 8.03413 80.4931 8.88017 80.4964 9.10456L80.5585 9.13071C80.6044 9.10738 80.6233 9.08691 80.6632 9.05406L80.7066 9.12361L80.7584 9.12572Z" fill="white"/>
<path d="M78.1338 7.77032C78.7769 7.80139 79.5807 7.77135 80.2319 7.75946C80.2912 8.03411 80.4931 8.88014 80.4964 9.10454C80.1779 9.1029 80.3099 7.89416 80.0303 7.89892C79.8224 7.90248 78.449 7.89335 78.3345 7.9676C78.197 8.22794 78.3215 9.54788 78.2566 9.92636C78.2402 10.023 78.2516 10.5632 78.2535 10.6936C78.263 11.1734 78.2697 11.6533 78.2736 12.1331C78.2763 12.6765 78.2109 17.0701 78.3095 17.1906C78.4857 17.2127 80.2764 17.2225 80.3274 17.1858C79.9953 17.1902 79.6631 17.187 79.3312 17.1761C79.4022 17.1079 80.1501 17.2064 80.2893 17.1331C80.4374 16.9469 80.2425 11.8854 80.3594 11.7671L80.3967 11.791C80.5008 11.9767 80.4582 12.4923 80.4549 12.7347C80.512 12.6934 80.4942 12.3225 80.488 12.2382C80.4424 11.6096 80.6988 10.9008 81.1086 10.4261C81.5159 9.95411 82.2874 9.63085 82.9058 9.5985C83.4169 9.57177 83.7841 9.71251 84.1926 9.99404C84.2533 10.0359 84.3532 10.0446 84.4033 10.0997C84.5695 10.2821 84.9707 10.8942 85.0245 11.1222C85.2246 11.971 85.1637 13.0693 85.1589 13.9448L85.145 17.2092C85.8018 17.1861 86.7478 17.2331 87.35 17.1789L87.3706 17.1429C87.2854 17.0387 87.3534 16.1607 87.3548 15.9658L87.3573 13.2854C87.362 12.1847 87.4374 11.0352 87.0939 9.98942C86.9547 9.56559 86.7968 9.13392 86.5114 8.78086C86.3948 8.63656 86.1838 8.50259 86.0938 8.34844L86.1189 8.28145C88.0065 9.72757 87.4057 12.567 87.5056 14.6393C87.5482 15.5229 87.4764 16.4601 87.5059 17.3522C86.6774 17.3757 85.8282 17.3567 84.9969 17.3662L84.9902 13.6361C84.9902 12.9339 85.0236 12.1251 84.9234 11.431C84.8627 11.01 84.6013 10.4576 84.2755 10.1826C83.506 9.53252 82.009 9.66278 81.3188 10.3802C81.0042 10.7046 80.7965 11.1541 80.711 11.5976C80.5902 12.3449 80.6306 13.2816 80.6314 14.047C80.6325 15.1338 80.613 16.2341 80.6264 17.3159L80.627 17.3601C79.7976 17.3598 78.9484 17.3511 78.121 17.3638L78.1243 10.8838C78.1177 9.84598 78.1207 8.80809 78.1338 7.77032Z" fill="white"/>
<path d="M80.6632 9.05405L80.7066 9.12359L80.7584 9.12571C80.7495 9.19684 80.7077 9.22555 80.6562 9.27853C80.5733 9.30345 80.5554 9.31584 80.4744 9.29785C80.4975 9.25099 80.5279 9.23468 80.5696 9.20327C80.571 9.15046 80.5799 9.16939 80.5585 9.13069C80.6044 9.10736 80.6234 9.0869 80.6632 9.05405Z" fill="white"/>
<path d="M85.459 8.13905C85.6186 8.13022 85.8522 8.1908 85.9092 8.35679L85.8352 8.36726C85.7205 8.32631 85.5426 8.22967 85.459 8.13905Z" fill="white"/>
<path d="M66.996 29.0695C66.8446 28.7348 66.8813 27.6145 66.8944 27.2375C66.9899 24.4791 69.4914 22.847 72.0806 22.9519C72.4615 22.9673 72.8635 23.0173 73.2536 23.0425C73.3984 23.1701 73.6116 23.2059 73.7929 23.1417L73.8171 23.0637C74.1634 23.1816 74.698 23.3745 75.0095 23.5737C75.2901 23.7418 75.6187 23.9822 75.8225 24.2394C75.4021 24.837 74.7517 25.4367 74.392 25.9833C73.4384 24.8239 71.354 24.6393 70.1941 25.5908C69.7478 25.9571 69.5552 26.2973 69.35 26.8144C69.3046 26.9973 69.2665 27.1529 69.2339 27.3397C69.125 29.0107 69.9263 30.4819 71.7741 30.6135C72.6561 30.6765 73.5 30.4437 74.1729 29.8423C74.2806 29.7463 74.3864 29.6477 74.4897 29.5469C74.8283 30.013 75.5193 30.6609 75.938 31.1873C75.7314 31.4115 75.5307 31.6342 75.2857 31.8193C74.4563 32.4469 73.314 32.7492 72.29 32.7979C71.4236 32.8394 70.6379 32.7406 69.8258 32.4427C69.6418 32.3798 69.5229 32.3227 69.3494 32.2397C69.4101 32.2236 69.4188 32.2186 69.473 32.1924L69.4622 32.1534C69.3948 32.122 69.328 32.0897 69.2614 32.0563C68.3686 31.6055 67.5698 30.7168 67.2015 29.7914C67.1483 29.6583 67.118 29.511 67.0706 29.3674L67.133 29.3295C67.1895 29.2259 67.1634 29.0617 67.0514 29.0007L66.996 29.0695Z" fill="white"/>
<path d="M74.5 29.7396C74.2831 29.9041 74.0629 30.1244 73.8293 30.2741C73.2193 30.6653 72.3418 30.8393 71.6235 30.7577C71.4119 30.7335 71.349 30.6968 71.1666 30.6124C71.1257 30.594 70.9812 30.6099 70.9511 30.5985C70.408 30.393 69.8912 30.0055 69.5772 29.5144C69.4647 29.3387 69.3581 29.1652 69.2464 29.0347C69.3302 28.8492 69.1186 28.4105 69.1103 28.183C69.1036 28.0026 69.0577 27.4001 69.1403 27.2576C69.2061 27.2743 69.1843 27.267 69.2339 27.3397C69.125 29.0107 69.9263 30.4818 71.7741 30.6135C72.6561 30.6764 73.5 30.4437 74.1729 29.8423C74.2806 29.7463 74.3864 29.6477 74.4897 29.5469C74.8283 30.013 75.5193 30.6609 75.938 31.1873C75.7314 31.4115 75.5307 31.6342 75.2857 31.8193C74.4563 32.4469 73.314 32.7492 72.29 32.7979C71.4236 32.8394 70.6379 32.7406 69.8258 32.4427C69.8035 32.3605 69.8152 32.3884 69.7169 32.3305L69.7306 32.3063C69.9455 32.2781 70.1101 32.4265 70.3116 32.4661C72.0219 32.801 73.7884 32.7364 75.259 31.7007C75.4319 31.5791 75.5978 31.3625 75.779 31.2188L75.803 31.2001C75.5087 30.8393 74.6593 30.0088 74.5 29.7396Z" fill="white"/>
<path d="M75.0095 23.5737C75.2901 23.7418 75.6186 23.9822 75.8224 24.2394C75.402 24.837 74.7517 25.4367 74.392 25.9833C73.4384 24.8238 71.354 24.6393 70.1941 25.5908C69.7478 25.9571 69.5551 26.2973 69.35 26.8143C69.1637 26.2244 69.9945 25.5343 70.4444 25.28C71.2362 24.832 72.089 24.7042 72.9682 24.9602C73.2424 25.04 74.2597 25.4925 74.3661 25.7308L74.3945 25.7286C74.8079 25.2484 75.2514 24.7728 75.649 24.2857C75.6008 24.0442 74.9769 23.7652 74.9555 23.6205L75.0095 23.5737Z" fill="white"/>
<path d="M71.6699 23.0204C71.8523 23.0117 72.6313 22.991 72.7591 23.0787C72.6204 23.0874 72.3092 23.1785 72.214 23.1486C71.884 23.0974 71.3567 23.2147 71.1451 23.0614C71.2841 23.0279 71.5057 23.0494 71.6699 23.0204Z" fill="white"/>
<path d="M51.9045 4.24534C52.5652 4.04068 53.2462 3.84827 53.911 3.65305L53.9079 12.7756L53.9118 15.751C53.9118 16.2257 53.8907 16.8964 53.9166 17.3593C53.0827 17.3617 52.2291 17.3542 51.397 17.3665L51.3936 7.38341C51.3922 6.41059 51.3841 5.43679 51.3967 4.46422C51.3972 4.4219 51.4769 4.36683 51.5083 4.34693C51.6158 4.33515 51.794 4.27738 51.9045 4.24534Z" fill="white"/>
<path d="M51.9045 4.24534C52.5652 4.04068 53.2462 3.84827 53.911 3.65305L53.9079 12.7756L53.9118 15.751C53.9118 16.2257 53.8907 16.8964 53.9166 17.3593C53.0827 17.3617 52.2291 17.3542 51.397 17.3665L51.3936 7.38341C51.3922 6.41059 51.3841 5.43679 51.3967 4.46422C51.3972 4.4219 51.4769 4.36683 51.5083 4.34693C51.5278 4.37931 51.5378 4.38883 51.5378 4.42736L51.52 17.2265C51.8516 17.2278 53.5516 17.2684 53.7529 17.1667C53.7749 17.0285 53.7551 16.3554 53.7534 16.1649C53.744 15.4588 53.7428 14.7526 53.7501 14.0464L53.7406 3.87037L53.722 3.87374C53.1763 3.97776 52.5215 4.25912 51.9752 4.32134C51.9541 4.32374 51.924 4.27087 51.9045 4.24534Z" fill="white"/>
<path d="M53.5574 18.9465C53.6961 18.8955 53.7732 18.8704 53.9166 18.8372C53.8865 19.2914 53.9043 19.8261 53.906 20.2904L53.9057 22.4801L53.9038 29.6589C53.9046 30.0233 53.9533 32.3979 53.8731 32.6136C53.546 32.6089 51.5292 32.6515 51.3828 32.5863C51.8107 32.4803 53.4341 32.6292 53.6237 32.4892C53.5569 32.4755 53.2587 32.4772 53.1729 32.4741C52.6253 32.4577 52.0771 32.4519 51.5295 32.4572C51.5473 32.0685 51.5334 31.5554 51.5336 31.1606L51.5314 28.8039L51.5272 23.9339C51.5225 22.5515 51.4961 21.0871 51.5451 19.7089C51.9223 19.6123 53.2336 19.1934 53.5379 19.0598C53.497 19.016 53.3798 19.0253 53.3018 19.02L53.5574 18.9465Z" fill="white"/>
<path d="M53.5574 18.9465C53.6961 18.8955 53.7732 18.8704 53.9166 18.8372C53.8865 19.2914 53.9043 19.8261 53.906 20.2904L53.9057 22.4801L53.9038 29.6589C53.9046 30.0233 53.9533 32.3979 53.8732 32.6136C53.8356 32.5964 53.7526 32.5677 53.7548 32.5332C53.7699 32.3038 53.7398 31.9613 53.7387 31.7467L53.7437 22.6891C53.7534 21.7969 53.7545 20.9046 53.7465 20.0123C53.7459 19.7223 53.7559 19.39 53.7456 19.098C53.742 19.0035 53.6858 19.1021 53.5574 18.9465Z" fill="white"/>
<path d="M27.8693 32.6766C26.7769 32.4076 25.9823 31.4655 25.9013 30.3435C25.8202 29.2212 26.4714 28.1747 27.5138 27.7518C28.5564 27.3286 29.7525 27.6254 30.4764 28.4868C31.2002 29.3479 31.2871 30.5773 30.691 31.5315C30.0966 32.4828 28.9585 32.9447 27.8693 32.6766Z" fill="#DBB42C"/>
<path d="M27.8693 32.6766L28.0121 32.6315L28.0383 32.5368C28.2844 32.4032 28.9006 32.6083 29.1096 32.5039L29.0125 32.4391C29.1642 32.3845 29.3129 32.272 29.4922 32.2347C29.662 32.1991 29.5843 32.0306 29.7686 31.9215C29.7728 32.0421 29.7517 32.1092 29.8151 32.186L29.8536 32.1726C29.8316 32.1259 29.8307 32.1292 29.8307 32.0777C29.9248 31.9719 30.0966 31.882 30.2222 31.8071L30.2492 31.6718L30.2723 31.6626L30.3207 31.7339C30.3747 31.6943 30.3541 31.7197 30.3775 31.6503C30.3269 31.6256 30.3191 31.6219 30.2745 31.5882L30.2806 31.5312C30.3686 31.4735 30.4725 31.4591 30.5771 31.4348C30.6696 31.4758 30.6415 31.4485 30.691 31.5315C30.0966 32.4828 28.9585 32.9447 27.8693 32.6766Z" fill="#DBB42C"/>
<path d="M13.6705 31.0509C13.2701 29.9643 13.6386 28.744 14.5734 28.0608C15.5081 27.3776 16.7826 27.3968 17.6963 28.1078C18.5648 28.7838 18.9119 29.9342 18.5623 30.9777C18.2128 32.0212 17.2426 32.7306 16.1423 32.747C15.0419 32.7634 14.0511 32.0833 13.6705 31.0509Z" fill="#DBB42C"/>
<path d="M13.6705 31.0509C13.2701 29.9643 13.6386 28.744 14.5734 28.0608C15.5081 27.3776 16.7826 27.3968 17.6963 28.1078C17.5533 28.1248 17.4894 28.0811 17.3688 28.0123C16.6536 27.6045 15.8432 27.5518 15.0986 27.9174C14.7821 28.0728 14.8785 27.9981 14.6531 28.2515C14.6199 28.2451 14.5914 28.2415 14.5577 28.2459C14.5203 28.3492 14.5353 28.3979 14.4738 28.4286L14.4466 28.3634L14.4349 28.3812C14.4055 28.4249 14.3856 28.4578 14.3419 28.4898C14.2726 28.541 14.2549 28.6338 14.198 28.6961C14.0095 28.9027 13.8153 29.1755 13.7523 29.4514C13.6324 29.9771 13.7002 30.5203 13.6705 31.0509Z" fill="#DBB42C"/>
<path d="M62.7522 31.3054C62.7035 31.431 62.496 31.6768 62.3964 31.7865C61.7622 32.4853 60.9216 32.759 59.999 32.8035C58.7665 32.8631 57.7672 32.5335 56.8488 31.7019C55.8482 30.7965 55.4111 29.4331 55.3626 28.1106C55.3178 26.7534 55.6135 25.2176 56.562 24.1873C58.1888 22.4203 61.4172 22.2116 62.8917 24.2812C62.9 24.2882 62.9084 24.2952 62.9167 24.3023C62.853 24.314 62.8173 24.3193 62.7527 24.3238C62.6391 24.2021 62.5075 23.9623 62.4083 23.8763C60.8328 22.5072 58.3619 22.7317 56.8613 24.0805C55.2543 25.5247 55.1201 28.9924 56.2346 30.7424C56.3036 30.8619 56.4373 31.1105 56.5317 31.1946C56.574 31.2391 56.6397 31.316 56.6881 31.3458C56.8864 31.5679 57.2658 31.9488 57.5406 32.0513C57.6105 32.1648 58.2898 32.424 58.4452 32.4689C59.4076 32.7481 60.4639 32.7523 61.3941 32.3589C61.7145 32.2233 61.9579 32.1145 62.1525 31.8246C62.1837 31.7781 62.3457 31.6974 62.3936 31.6384C62.4924 31.5164 62.5732 31.3001 62.7118 31.2216L62.7522 31.3054Z" fill="white"/>
<path d="M67.0626 14.4635L67.1942 14.4645C68.1136 16.7453 69.9087 17.3504 72.2179 17.404C73.0428 17.4231 74.0342 17.2024 74.8001 16.9009C75.0682 16.7954 75.9219 16.223 75.9798 15.968C75.86 15.8673 75.6042 15.7895 75.4527 15.6359C75.2626 15.4427 75.3043 15.2955 75.1704 15.0903C75.0733 14.9413 74.9148 14.8884 74.7999 14.7469C74.6256 14.7163 74.3931 15.0608 74.2241 15.1467C73.5125 15.5085 72.6157 15.741 71.8175 15.6395C71.6399 15.6108 70.9319 15.4889 70.8169 15.4277L70.8261 15.3881C70.9146 15.3646 70.9291 15.3663 71.0221 15.3662C71.0889 15.3642 71.4459 15.4516 71.5514 15.4595C71.9473 15.4892 72.3306 15.4893 72.724 15.4581C73.4563 15.3999 74.2712 15.0707 74.7458 14.4892C74.8511 14.6268 75.1768 14.9246 75.3183 15.0712C75.6098 15.3737 75.879 15.6727 76.1599 15.9849C75.6632 16.6785 74.8377 17.0805 74.0362 17.3129C71.5299 18.0392 67.8975 17.2779 67.0626 14.4635Z" fill="white"/>
<path d="M79.1684 28.8529C79.6428 31.0609 83.2078 31.2589 84.5434 29.7054C85.0114 30.2126 85.5559 30.7505 86.0532 31.2308C85.1191 32.2425 84.1283 32.5833 82.7718 32.7503C80.9613 32.9731 78.7054 32.4808 77.5689 30.9318C77.5731 30.8772 77.5695 30.8535 77.6029 30.8101C77.7424 30.8972 77.8206 31.0788 77.9384 31.1823C78.415 31.6002 78.9114 31.9338 79.4883 32.2008C79.6729 32.2862 79.9354 32.3121 80.0476 32.4385C80.3433 32.4561 80.6434 32.5546 80.9474 32.5825C82.2476 32.7016 83.5361 32.6537 84.7335 32.0858C84.9902 31.9638 85.7929 31.4507 85.8736 31.2185C85.7817 31.0999 85.5064 30.8775 85.3711 30.7405C85.1213 30.4883 84.8797 30.1915 84.6127 29.9609C84.6093 29.9551 84.5486 29.927 84.5442 29.9303C84.065 30.2861 83.5806 30.6753 82.9712 30.7778C82.0288 30.9309 80.9346 30.8399 80.0952 30.3524C79.7388 30.1453 78.8716 29.2903 79.1684 28.8529Z" fill="white"/>
<path d="M51.3808 19.6064C51.993 19.4005 52.6788 19.2084 53.3019 19.02C53.3798 19.0253 53.497 19.016 53.5379 19.0598C53.2336 19.1934 51.9223 19.6123 51.5451 19.7089C51.4961 21.0871 51.5225 22.5515 51.5273 23.9339L51.5314 28.8039L51.5337 31.1606C51.5334 31.5554 51.5473 32.0685 51.5295 32.4572C52.0771 32.4519 52.6253 32.4577 53.1729 32.4741C53.2587 32.4772 53.5569 32.4755 53.6237 32.4892C53.4341 32.6292 51.8107 32.4803 51.3828 32.5863C51.4318 28.2696 51.3357 23.9193 51.3808 19.6064Z" fill="white"/>
<path d="M39.7569 14.3055C39.4236 13.1282 39.4167 12.1019 39.7516 10.9164C40.9173 6.79015 47.5059 6.41797 49.435 10.1147C49.349 10.1016 49.3317 10.1165 49.295 10.0574C48.9405 9.48934 48.5335 9.00638 47.9775 8.61499L47.9458 8.61441L47.9611 8.60377L47.9402 8.60322L47.982 8.69632L47.9591 8.74075C47.8222 8.76812 47.5173 8.60592 47.4015 8.5298C47.3731 8.51101 47.3452 8.49096 47.3188 8.46969L47.333 8.45616C47.4588 8.4967 47.4953 8.54714 47.6092 8.53114L47.6239 8.51343C47.5293 8.44489 47.4265 8.41356 47.3168 8.37278C47.4538 8.39207 47.5432 8.39238 47.6479 8.47651C47.7127 8.52877 47.7531 8.52067 47.8238 8.51744C47.781 8.45129 47.6044 8.40056 47.5243 8.35705C47.0538 8.10046 46.5974 7.96001 46.0698 7.84917C45.3708 7.70236 44.5536 7.74427 43.8406 7.78965C43.773 7.79393 43.0046 7.9347 42.9581 7.95135C41.9575 8.30955 41.0821 8.86551 40.4371 9.72346C40.368 9.81489 40.3162 9.96322 40.2536 10.0616C39.9735 10.4413 39.9 10.9341 39.7942 11.386C39.6263 12.1048 39.672 12.8776 39.7238 13.6083C39.7382 13.8087 39.8763 14.0591 39.8502 14.2773C39.7934 14.312 39.8234 14.303 39.7569 14.3055Z" fill="white"/>
<path d="M69.3494 32.2397C68.6183 31.9663 67.6695 31.0167 67.3031 30.3179C66.6294 29.048 66.5375 27.5095 66.9362 26.1387C67.7787 23.2418 71.1421 22.2647 73.8171 23.0637L73.7929 23.1417C73.6116 23.2059 73.3984 23.1701 73.2536 23.0425C72.8635 23.0173 72.4615 22.9673 72.0806 22.9519C69.4914 22.847 66.9899 24.4791 66.8944 27.2375C66.8813 27.6145 66.8446 28.7348 66.996 29.0695C67.0155 29.1719 67.0286 29.2727 67.0707 29.3674C67.118 29.511 67.1483 29.6583 67.2015 29.7914C67.5698 30.7168 68.3686 31.6055 69.2615 32.0563C69.328 32.0897 69.3948 32.122 69.4622 32.1534L69.4731 32.1924C69.4188 32.2186 69.4101 32.2236 69.3494 32.2397Z" fill="white"/>
<path d="M75.4349 8.94635C76.5254 10.0622 76.8606 11.9126 76.6312 13.4108C75.1058 13.4439 73.4738 13.4127 71.9403 13.4155L70.4508 13.4183C70.3286 13.4182 69.8661 13.4226 69.7609 13.4036C69.6359 13.3514 69.564 13.387 69.3655 13.2995C69.468 13.223 70.5535 13.3012 70.7598 13.2852C72.32 13.1647 73.8716 13.3331 75.4318 13.2789C75.7629 13.2674 76.1537 13.3057 76.4734 13.2622C76.5638 13.0685 76.5179 12.6924 76.5335 12.4795C76.6095 11.4452 76.2966 10.4558 75.7726 9.57238C75.6799 9.41597 75.414 9.10747 75.4349 8.94635Z" fill="white"/>
<path d="M55.709 10.4198C56.5815 7.47385 61.0311 6.43975 62.7778 9.04269C62.6606 9.03743 62.6567 9.03985 62.5782 8.93915C61.361 7.37836 58.7904 7.38409 57.2878 8.49709C57.1191 8.62207 56.9251 8.71673 56.8168 8.89937C56.7171 9.05213 56.5022 9.19259 56.3969 9.35003C56.2265 9.61767 56.0821 9.92823 55.9183 10.2002C55.8357 10.3376 55.8897 10.4155 55.7942 10.4901C55.7438 10.4633 55.7468 10.4633 55.709 10.4198Z" fill="white"/>
<path d="M42.1997 28.4542C42.1173 28.4174 42.1471 28.445 42.1011 28.3762L42.1242 28.345C42.2364 28.3133 43.0786 28.3308 43.2557 28.3297C43.7081 28.3456 44.1736 28.2863 44.6227 28.2913C45.3931 28.2999 46.1818 28.308 46.9399 28.1563C47.2378 28.0964 47.5866 27.9082 47.879 27.8865L47.8846 27.8342C47.9614 27.7306 48.6235 27.4068 48.7588 27.296C48.9072 27.1749 49.0553 26.894 49.222 26.782L49.3287 26.8035C47.8751 28.6783 45.7038 28.4826 43.5865 28.4664C43.2454 28.4639 42.5129 28.514 42.1997 28.4542Z" fill="white"/>
<path d="M80.6631 9.05407C80.669 9.04538 80.6751 9.03669 80.681 9.02801C81.1996 8.29896 81.9828 7.80158 82.8631 7.64214C83.7404 7.48303 85.0584 7.56741 85.809 8.08623C85.5183 8.17179 85.1063 7.85178 84.7872 7.81219C84.4852 7.77474 84.1917 7.73641 83.8849 7.73541C82.8773 7.69362 82.0936 7.87976 81.3063 8.53753C81.1495 8.6683 80.85 8.95827 80.7584 9.12573L80.7066 9.12361L80.6631 9.05407Z" fill="white"/>
<path d="M58.6245 17.4088C58.6331 17.3601 58.6448 17.3416 58.6657 17.2969C58.7194 17.2725 59.5332 17.3517 59.6583 17.3639C60.7101 17.4669 62.1074 17.0346 62.6595 16.0602C62.7408 15.9973 62.7887 16.0029 62.8895 15.997C61.8844 17.4182 60.2649 17.823 58.6245 17.4088Z" fill="white"/>
<path d="M55.9206 15.1704C55.9529 15.1806 55.9921 15.193 56.0384 15.2077C56.2887 15.4996 56.4443 15.8768 56.7116 16.1571C57.1191 16.5845 57.4613 16.7274 57.9235 17.014L57.9109 17.0556L57.8068 17.0932C57.0008 16.7356 56.2474 15.9953 55.9206 15.1704Z" fill="white"/>
<path d="M40.255 15.4146L40.2823 15.3337L40.3193 15.3281C40.7456 15.8095 41.0359 16.2093 41.5897 16.5632C41.6794 16.6204 41.9118 16.7256 41.9539 16.7857C41.9054 16.8406 41.9154 16.8242 41.8314 16.8475C41.1935 16.5106 40.6512 16.0176 40.255 15.4146Z" fill="white"/>
<path d="M56.2346 30.7424L56.2719 30.6987C56.3574 30.731 56.5308 30.9922 56.5862 31.0799C56.5746 31.1562 56.5824 31.1292 56.5317 31.1946C56.4373 31.1105 56.3037 30.8619 56.2346 30.7424Z" fill="white"/>
<path d="M66.996 29.0695L67.0514 29.0007C67.1634 29.0617 67.1895 29.2259 67.133 29.3295L67.0706 29.3674C67.0286 29.2727 67.0155 29.1719 66.996 29.0695Z" fill="white"/>
</svg>
