<svg width="21" height="24" viewBox="0 0 21 24" fill="none" xmlns="http://www.w3.org/2000/svg">
<g clip-path="url(#clip0_263_5494)">
<path d="M10.1051 0.00628296C12.1196 -0.055627 14.0169 0.608114 15.5139 1.9696C17.0298 3.34329 17.9274 5.2705 18.0033 7.31481C18.0185 7.64498 18.0105 8.01866 18.0106 8.35159L18.0108 10.0846C18.0106 10.7817 18.0355 11.6501 17.9728 12.3323C17.8149 13.9736 17.126 15.5188 16.0108 16.7334C14.6456 18.227 12.741 19.114 10.7193 19.1976C8.67136 19.2519 6.82653 18.5973 5.29788 17.2243C3.81838 15.8831 2.92837 14.012 2.82148 12.0179C2.80314 11.6609 2.80979 11.2776 2.80968 10.918L2.80951 9.22074C2.80961 8.53844 2.78339 7.59676 2.83834 6.94095C2.98307 5.2712 3.67491 3.6959 4.80647 2.45954C6.17884 0.941577 8.07466 0.11133 10.1051 0.00628296ZM10.4993 17.5966C10.877 17.5819 11.1579 17.5623 11.5309 17.4923C12.7714 17.255 13.9055 16.6323 14.7713 15.7126C15.4634 14.9646 15.9314 14.1506 16.2009 13.1623C16.4768 12.1505 16.4103 11.1295 16.4103 10.0898V8.40001C16.4103 8.07809 16.4183 7.72198 16.4053 7.40359C16.3518 5.80565 15.6636 4.29491 14.4931 3.2058C13.3654 2.15603 11.8755 1.58279 10.3349 1.60589C8.74136 1.62338 7.22039 2.27466 6.10804 3.41584C5.13966 4.4101 4.54716 5.71018 4.43206 7.09333C4.40326 7.43626 4.40617 7.7978 4.40998 8.14278C4.42307 9.32573 4.39319 10.5157 4.41157 11.698C4.43567 13.2873 5.09151 14.8016 6.23422 15.9065C7.37103 17.0108 8.89959 17.6188 10.4843 17.597L10.4993 17.5966Z" fill="black"/>
<path d="M0.742681 14.0043C0.993194 13.9869 1.29553 14.1014 1.43953 14.3081C1.57809 14.5071 1.66566 14.8169 1.75848 15.0456C1.85309 15.2785 1.95773 15.5071 2.07211 15.7308C2.92913 17.4021 4.27257 18.7746 5.92531 19.667C8.12174 20.8501 10.6965 21.118 13.0895 20.4124C15.4215 19.72 17.3929 18.1481 18.587 16.0288C18.7692 15.7005 18.9312 15.3614 19.0722 15.0135C19.2361 14.6079 19.3012 14.1745 19.7765 14.0359C19.9872 13.9729 20.2146 13.9988 20.4059 14.1073C20.591 14.2125 20.726 14.3878 20.7805 14.5935C20.8086 14.6961 20.8144 14.8036 20.7975 14.9086C20.771 15.0779 20.6909 15.2706 20.6295 15.4325C20.4225 15.979 20.1726 16.4746 19.8845 16.9813C19.3327 17.9259 18.6421 18.7823 17.8357 19.5215C16.295 20.9321 14.3841 21.8746 12.3271 22.2388C12.1259 22.2739 11.4217 22.3811 11.2139 22.372C11.2007 22.6695 11.2409 23.0248 11.1964 23.315C11.0534 24.246 9.71241 24.2105 9.61599 23.2763C9.58797 23.0046 9.60912 22.6589 9.61006 22.3798C7.62059 22.1825 5.90809 21.6518 4.23724 20.5143C2.56376 19.3831 1.23821 17.8085 0.409044 15.9666C0.327269 15.784 0.053406 15.1303 0.0219435 14.943C-0.0150565 14.7185 0.0414936 14.4885 0.178444 14.3068C0.326569 14.1113 0.506169 14.0366 0.742681 14.0043Z" fill="black"/>
</g>
<defs>
<clipPath id="clip0_263_5494">
<rect width="20.85" height="24" fill="white"/>
</clipPath>
</defs>
</svg>
