<svg width="24" height="24" viewBox="0 0 24 24" fill="none" xmlns="http://www.w3.org/2000/svg">
<path d="M11.0049 10.3727C11.1937 10.3675 11.3895 10.3634 11.5782 10.3762C12.9021 10.4661 14.1329 11.0856 14.9929 12.0956C15.2478 12.3949 15.4445 12.7185 15.6538 13.0447L17.1911 15.4416C17.4187 15.7963 17.6714 16.1552 17.8242 16.5479C17.9885 16.9796 18.0544 17.4426 18.0171 17.9031C17.9523 18.7157 17.5675 19.4696 16.9472 19.9986C16.1725 20.6615 15.1194 20.8974 14.1359 20.6281C13.7903 20.5337 13.4227 20.3532 13.0703 20.2446C12.5347 20.0795 12.1047 20.021 11.5501 19.98C10.8502 19.9518 10.0731 20.0477 9.4059 20.2672C8.81035 20.4632 8.50595 20.6733 7.85575 20.7278C7.04619 20.7945 6.24296 20.5394 5.62021 20.0178C4.98806 19.4903 4.59571 18.7299 4.53217 17.909C4.49198 17.4491 4.55651 16.9863 4.72092 16.555C4.87645 16.1535 5.13427 15.7895 5.36665 15.4272L6.8923 13.0468C7.098 12.7262 7.30206 12.3868 7.55023 12.0981C8.45604 11.0441 9.62381 10.4783 11.0049 10.3727ZM11.3468 18.7984C11.5859 18.8095 11.8426 18.8152 12.0799 18.8434C12.6275 18.9085 13.1646 19.0356 13.6869 19.2116C13.9424 19.2978 14.192 19.4252 14.452 19.4959C15.0717 19.6651 15.735 19.5074 16.2123 19.0775C16.5905 18.7357 16.8267 18.2744 16.8524 17.7624C16.8689 17.4677 16.8164 17.1733 16.6989 16.9025C16.6003 16.6758 16.4104 16.3989 16.2742 16.1864L14.7722 13.8423C14.55 13.495 14.3027 13.0798 14.0295 12.778C13.3104 11.9834 12.4216 11.5936 11.3582 11.5458C11.3084 11.5436 11.2586 11.5432 11.2088 11.5446C10.1104 11.6001 9.23105 11.9779 8.49162 12.805C8.24347 13.0825 8.00258 13.485 7.79995 13.8013L6.2738 16.1827C6.14483 16.3841 5.93885 16.6885 5.84594 16.9035C5.73312 17.1718 5.68147 17.4618 5.69475 17.7526C5.72182 18.264 5.95248 18.7433 6.33525 19.0834C6.7101 19.4188 7.20365 19.59 7.70562 19.5587C8.18959 19.533 8.53635 19.3081 8.98204 19.1669C9.70248 18.9387 10.5929 18.7768 11.3468 18.7984Z" fill="#717680"/>
<path d="M9.68938 3.26313C10.4033 3.24128 11.0498 3.48499 11.5941 3.96371C13.4864 5.62774 12.9597 9.1833 10.4144 9.87937C10.2493 9.92452 10.087 9.9368 9.91587 9.94632C9.19217 9.98555 8.50639 9.70947 7.97733 9.22986C7.27721 8.59526 6.91104 7.70719 6.86672 6.77321C6.78666 5.086 7.88391 3.36871 9.68938 3.26313ZM9.8157 8.77817C11.6869 8.65916 12.0923 5.89227 10.799 4.82425C10.4997 4.57711 10.1754 4.43154 9.78442 4.435C9.5861 4.44533 9.35291 4.48487 9.17086 4.57633C7.80451 5.26283 7.67205 7.41155 8.78825 8.3829C9.09366 8.6487 9.41062 8.77246 9.8157 8.77817Z" fill="#717680"/>
<path d="M15.9349 4.83518C16.0403 4.82708 16.1718 4.83415 16.2769 4.84459C17.5713 4.97325 18.4562 6.07584 18.5607 7.3263C18.6296 8.13211 18.414 8.93658 17.9515 9.59998C17.4385 10.3372 16.6496 10.8264 15.7494 10.8978C15.1359 10.9218 14.5356 10.7153 14.0668 10.319C13.4782 9.81764 13.1538 9.06117 13.1093 8.29789C13.0114 6.62113 14.1826 4.95349 15.9349 4.83518ZM15.729 9.71371C17.2146 9.60381 17.9922 7.32125 16.8552 6.31434C16.5857 6.07579 16.2843 6.00164 15.9302 6.02811C15.5277 6.0416 15.1494 6.27813 14.8786 6.56291C14.1857 7.29158 14.0139 8.63698 14.7771 9.37892C15.0168 9.61192 15.3245 9.7317 15.6583 9.71739C15.6818 9.71635 15.7055 9.71512 15.729 9.71371Z" fill="#717680"/>
<path d="M2 9.40274C2.04545 9.31219 2.04917 9.15399 2.07313 9.05112C2.25431 8.27308 2.7402 7.59931 3.48877 7.29478C4.89129 6.7242 6.37325 7.6587 6.89215 8.98053C7.44675 10.3058 7.02117 12.0384 5.59675 12.6004C5.01595 12.8296 4.37675 12.786 3.81568 12.5461C2.86676 12.1404 2.19825 11.2049 2.04226 10.1957C2.03431 10.1443 2.02576 10.0683 2 10.0251V9.40274ZM4.82404 11.5762C5.11725 11.5607 5.39219 11.429 5.58804 11.2102C5.86338 10.9076 5.97173 10.4793 5.95107 10.0775C5.92217 9.54676 5.68577 9.04871 5.29289 8.69078C5.01511 8.44143 4.68953 8.29634 4.3136 8.30214C4.09048 8.32373 3.93417 8.3601 3.74509 8.48644C3.29962 8.78411 3.1312 9.36213 3.18259 9.87496C3.26859 10.7333 3.90335 11.5792 4.82404 11.5762Z" fill="#717680"/>
<path d="M22 12.6293C21.9617 12.7223 21.9428 12.9084 21.9201 13.0151C21.5697 14.6613 19.667 15.9657 18.0327 15.1966C17.4868 14.9382 17.0675 14.4714 16.8688 13.901C16.6133 13.1883 16.7009 12.4148 17.0079 11.7305C17.6064 10.3968 19.2749 9.49259 20.686 10.1667C21.266 10.4449 21.7009 10.9559 21.8829 11.5728C21.9096 11.6602 21.9306 11.7498 21.948 11.8395C21.9637 11.9213 21.9686 12.013 22 12.0904V12.6293ZM19.1204 14.2464C19.7002 14.1807 20.0336 13.9506 20.4104 13.512C21.1226 12.6833 20.943 11.0723 19.6083 11.1147C19.3715 11.1374 19.2193 11.1736 18.9919 11.2769C18.0405 11.709 17.4272 13.2269 18.323 14.0024C18.5471 14.1964 18.8241 14.2421 19.1204 14.2464Z" fill="#717680"/>
</svg>
