<svg width="20" height="20" viewBox="0 0 20 20" fill="none" xmlns="http://www.w3.org/2000/svg">
<path fill-rule="evenodd" clip-rule="evenodd" d="M18.3597 17.3979C18.5534 17.5935 18.7463 17.7881 18.9369 17.9787L19.5157 18.5574C19.55 18.5917 19.5851 18.6251 19.62 18.6583C19.8168 18.8455 20.0071 19.0265 19.9998 19.3132C19.9965 19.4468 19.9822 19.5556 19.9131 19.6731C19.7429 20.0044 19.2471 20.0984 18.9535 19.8841C18.8449 19.8048 18.7361 19.693 18.6347 19.5888C18.6068 19.5601 18.5794 19.532 18.5528 19.5053L16.6705 17.6227C16.6036 17.5557 16.5338 17.487 16.4633 17.4176C16.3144 17.271 16.1624 17.1213 16.0267 16.9781C16.0169 16.9678 16.0073 16.9574 15.9976 16.9469C14.0597 18.6444 11.5199 19.4898 8.95134 19.2923C6.93125 19.1469 5.00895 18.3659 3.45963 17.0616C3.28811 16.9377 3.00089 16.6578 2.84956 16.5071C1.91283 15.5799 1.17737 14.4694 0.689145 13.2451C-0.246814 10.9002 -0.228766 8.28228 0.739437 5.95049C0.816988 5.74872 0.932733 5.51245 1.02926 5.31865C1.63571 4.11102 2.4881 3.04361 3.53166 2.18505C5.52405 0.557295 8.08219 -0.210899 10.6417 0.0499379C12.1986 0.205176 13.694 0.738627 14.9977 1.60384C15.0633 1.64745 15.5196 1.95945 15.555 2.00227C15.6059 2.04608 15.66 2.08736 15.7143 2.12877C15.7652 2.16756 15.8163 2.20646 15.8648 2.24765C15.9857 2.35029 16.1158 2.46369 16.2319 2.57162C16.9091 3.20289 17.4943 3.92626 17.97 4.72048L17.9766 4.73156C18.032 4.82488 18.1683 5.05449 18.2047 5.13734C18.2261 5.17086 18.2615 5.24631 18.2917 5.31056L18.2986 5.32532C18.3106 5.35075 18.3214 5.37362 18.3299 5.39043C18.3799 5.49169 18.4287 5.59359 18.4763 5.69609C18.6122 5.99141 18.7544 6.36553 18.8536 6.67598C19.5955 8.97114 19.4549 11.4605 18.4591 13.6575C18.0922 14.4695 17.5516 15.3388 16.947 15.9966C17.4149 16.4442 17.8886 16.9224 18.3557 17.3938L18.3597 17.3979ZM14.628 2.9934C11.0075 0.295596 5.89544 0.981538 3.11415 4.53836C0.440788 7.95716 0.847747 12.8573 4.04845 15.7882C7.05509 18.5415 11.6148 18.7077 14.8139 16.1807C18.013 13.6537 18.9071 9.17941 16.9249 5.61697C16.3534 4.58989 15.5706 3.69569 14.628 2.9934Z" fill="#717680"/>
</svg>
