<svg width="24" height="24" viewBox="0 0 24 24" fill="none" xmlns="http://www.w3.org/2000/svg">
<path d="M13.4446 4.33607C12.8941 4.73217 12.4518 5.22492 11.9969 5.72164C11.184 4.78384 10.3638 4.01689 9.15506 3.62338C8.46042 3.34466 7.27084 3.28241 6.52578 3.39721C6.08543 3.46713 5.65553 3.5918 5.2461 3.76832C3.9422 4.33332 2.91333 5.38919 2.38227 6.70728C1.95689 7.77033 1.93508 8.68836 2.08269 9.80586C2.58784 11.7049 3.18348 12.1729 4.48778 13.5069L9.38895 18.5713C9.91197 19.1145 10.4239 19.6702 10.9589 20.2038C11.2862 20.5301 11.5837 20.672 12.0477 20.667C12.3466 20.6636 12.6684 20.541 12.896 20.3435C13.3573 19.943 13.7974 19.4379 14.2129 18.987C14.4199 18.7625 14.6586 18.5301 14.8729 18.313C15.3595 17.8265 15.8418 17.3358 16.32 16.8412C16.5443 16.6069 16.7616 16.3521 16.983 16.1259L19.4735 13.5558C19.8199 13.198 20.1902 12.849 20.5253 12.4882C23.1616 9.65861 22.1292 5.01134 18.4955 3.66637C16.8264 3.0486 14.8859 3.29899 13.4446 4.33607Z" fill="#181D27"/>
</svg>
